<svg width="19" height="20" viewBox="0 0 19 20" fill="none" xmlns="http://www.w3.org/2000/svg">
<path d="M5.707 18.207L15 8.914L10.586 4.5L1.293 13.793C1.16506 13.9211 1.07418 14.0814 1.03 14.257L0 19.5L5.242 18.47C5.418 18.426 5.579 18.335 5.707 18.207ZM18 5.914C18.3749 5.53895 18.5856 5.03033 18.5856 4.5C18.5856 3.96967 18.3749 3.46106 18 3.086L16.414 1.5C16.0389 1.12506 15.5303 0.914429 15 0.914429C14.4697 0.914429 13.9611 1.12506 13.586 1.5L12 3.086L16.414 7.5L18 5.914Z" fill="#777777"/>
</svg>
