<svg width="20" height="20" viewBox="0 0 20 20" fill="none" xmlns="http://www.w3.org/2000/svg">
<path d="M2 4H0V18C0 19.1 0.9 20 2 20H16V18H2V4ZM18 0H6C4.9 0 4 0.9 4 2V14C4 15.1 4.9 16 6 16H18C19.1 16 20 15.1 20 14V2C20 0.9 19.1 0 18 0ZM18 14H6V2H18V14ZM11.51 8.16C11.92 7.43 12.69 7 13.14 6.36C13.62 5.68 13.35 4.42 12 4.42C11.12 4.42 10.68 5.09 10.5 5.65L9.13 5.08C9.51 3.96 10.52 3 11.99 3C13.22 3 14.07 3.56 14.5 4.26C14.87 4.86 15.08 5.99 14.51 6.83C13.88 7.76 13.28 8.04 12.95 8.64C12.82 8.88 12.77 9.04 12.77 9.82H11.25C11.26 9.41 11.19 8.74 11.51 8.16ZM10.95 11.95C10.95 11.36 11.42 10.91 12 10.91C12.59 10.91 13.04 11.36 13.04 11.95C13.04 12.53 12.6 13 12 13C11.42 13 10.95 12.53 10.95 11.95Z" fill="#9F9F9F"/>
</svg>
