<svg width="158" height="33" viewBox="0 0 158 33" fill="none" xmlns="http://www.w3.org/2000/svg">
<path d="M15.404 20.244H6.508L5.036 24.5H0.332L8.364 2.132H13.58L21.612 24.5H16.876L15.404 20.244ZM14.188 16.66L10.956 7.316L7.724 16.66H14.188ZM23.4622 15.636C23.4622 13.8013 23.8356 12.2013 24.5823 10.836C25.3289 9.44933 26.3636 8.38267 27.6863 7.636C29.0089 6.868 30.5236 6.484 32.2303 6.484C34.4276 6.484 36.2409 7.03867 37.6703 8.148C39.1209 9.236 40.0916 10.772 40.5823 12.756H35.7503C35.4943 11.988 35.0569 11.3907 34.4383 10.964C33.8409 10.516 33.0943 10.292 32.1983 10.292C30.9183 10.292 29.9049 10.7613 29.1583 11.7C28.4116 12.6173 28.0383 13.9293 28.0383 15.636C28.0383 17.3213 28.4116 18.6333 29.1583 19.572C29.9049 20.4893 30.9183 20.948 32.1983 20.948C34.0116 20.948 35.1956 20.1373 35.7503 18.516H40.5823C40.0916 20.436 39.1209 21.9613 37.6703 23.092C36.2196 24.2227 34.4063 24.788 32.2303 24.788C30.5236 24.788 29.0089 24.4147 27.6863 23.668C26.3636 22.9 25.3289 21.8333 24.5823 20.468C23.8356 19.0813 23.4622 17.4707 23.4622 15.636Z" fill="#060606"/>
<path d="M42.7122 15.572C42.7122 13.78 43.0642 12.1907 43.7682 10.804C44.4936 9.41733 45.4643 8.35067 46.6803 7.604C47.9176 6.85733 49.2936 6.484 50.8083 6.484C52.1309 6.484 53.2829 6.75067 54.2643 7.284C55.2669 7.81733 56.0669 8.48933 56.6643 9.3V6.772H61.1763V24.5H56.6643V21.908C56.0883 22.74 55.2883 23.4333 54.2643 23.988C53.2616 24.5213 52.0989 24.788 50.7763 24.788C49.2829 24.788 47.9176 24.404 46.6803 23.636C45.4643 22.868 44.4936 21.7907 43.7682 20.404C43.0642 18.996 42.7122 17.3853 42.7122 15.572ZM56.6643 15.636C56.6643 14.548 56.4509 13.62 56.0243 12.852C55.5976 12.0627 55.0216 11.4653 54.2963 11.06C53.5709 10.6333 52.7923 10.42 51.9603 10.42C51.1283 10.42 50.3603 10.6227 49.6562 11.028C48.9523 11.4333 48.3763 12.0307 47.9283 12.82C47.5016 13.588 47.2883 14.5053 47.2883 15.572C47.2883 16.6387 47.5016 17.5773 47.9283 18.388C48.3763 19.1773 48.9523 19.7853 49.6562 20.212C50.3816 20.6387 51.1496 20.852 51.9603 20.852C52.7923 20.852 53.5709 20.6493 54.2963 20.244C55.0216 19.8173 55.5976 19.22 56.0243 18.452C56.4509 17.6627 56.6643 16.724 56.6643 15.636ZM64.3997 15.572C64.3997 13.78 64.7517 12.1907 65.4557 10.804C66.1811 9.41733 67.1624 8.35067 68.3998 7.604C69.6371 6.85733 71.0131 6.484 72.5278 6.484C73.6798 6.484 74.7784 6.74 75.8238 7.252C76.8691 7.74267 77.7011 8.404 78.3198 9.236V0.82H82.8638V24.5H78.3198V21.876C77.7651 22.7507 76.9864 23.4547 75.9838 23.988C74.9811 24.5213 73.8184 24.788 72.4958 24.788C71.0024 24.788 69.6371 24.404 68.3998 23.636C67.1624 22.868 66.1811 21.7907 65.4557 20.404C64.7517 18.996 64.3997 17.3853 64.3997 15.572ZM78.3518 15.636C78.3518 14.548 78.1384 13.62 77.7118 12.852C77.2851 12.0627 76.7091 11.4653 75.9838 11.06C75.2584 10.6333 74.4798 10.42 73.6478 10.42C72.8158 10.42 72.0478 10.6227 71.3438 11.028C70.6398 11.4333 70.0638 12.0307 69.6158 12.82C69.1891 13.588 68.9758 14.5053 68.9758 15.572C68.9758 16.6387 69.1891 17.5773 69.6158 18.388C70.0638 19.1773 70.6398 19.7853 71.3438 20.212C72.0691 20.6387 72.8371 20.852 73.6478 20.852C74.4798 20.852 75.2584 20.6493 75.9838 20.244C76.7091 19.8173 77.2851 19.22 77.7118 18.452C78.1384 17.6627 78.3518 16.724 78.3518 15.636ZM103.719 15.252C103.719 15.892 103.677 16.468 103.591 16.98H90.6313C90.7379 18.26 91.1859 19.2627 91.9753 19.988C92.7646 20.7133 93.7353 21.076 94.8873 21.076C96.5513 21.076 97.7353 20.3613 98.4393 18.932H103.271C102.759 20.6387 101.778 22.0467 100.327 23.156C98.8766 24.244 97.0953 24.788 94.9833 24.788C93.2766 24.788 91.7406 24.4147 90.3753 23.668C89.0313 22.9 87.9753 21.8227 87.2073 20.436C86.4606 19.0493 86.0872 17.4493 86.0872 15.636C86.0872 13.8013 86.4606 12.1907 87.2073 10.804C87.9539 9.41733 88.9993 8.35067 90.3433 7.604C91.6873 6.85733 93.2339 6.484 94.9833 6.484C96.6686 6.484 98.1726 6.84667 99.4953 7.572C100.839 8.29733 101.874 9.332 102.599 10.676C103.346 11.9987 103.719 13.524 103.719 15.252ZM99.0793 13.972C99.0579 12.82 98.6419 11.9027 97.8313 11.22C97.0206 10.516 96.0286 10.164 94.8553 10.164C93.7459 10.164 92.8073 10.5053 92.0393 11.188C91.2926 11.8493 90.8339 12.7773 90.6633 13.972H99.0793ZM129.005 6.516C131.181 6.516 132.931 7.188 134.253 8.532C135.597 9.85467 136.269 11.7107 136.269 14.1V24.5H131.789V14.708C131.789 13.3213 131.437 12.2653 130.733 11.54C130.029 10.7933 129.069 10.42 127.853 10.42C126.637 10.42 125.667 10.7933 124.941 11.54C124.237 12.2653 123.885 13.3213 123.885 14.708V24.5H119.405V14.708C119.405 13.3213 119.053 12.2653 118.349 11.54C117.645 10.7933 116.685 10.42 115.469 10.42C114.232 10.42 113.251 10.7933 112.525 11.54C111.821 12.2653 111.469 13.3213 111.469 14.708V24.5H106.989V6.772H111.469V8.916C112.045 8.16933 112.781 7.58267 113.677 7.156C114.595 6.72933 115.597 6.516 116.685 6.516C118.072 6.516 119.309 6.81467 120.397 7.412C121.485 7.988 122.328 8.82 122.925 9.908C123.501 8.884 124.333 8.06267 125.421 7.444C126.531 6.82533 127.725 6.516 129.005 6.516ZM157.481 6.772L146.505 32.884H141.737L145.577 24.052L138.473 6.772H143.497L148.073 19.156L152.713 6.772H157.481Z" fill="#0081FE"/>
</svg>
