<svg width="28" height="28" viewBox="0 0 28 28" fill="none" xmlns="http://www.w3.org/2000/svg">
<path d="M14 0.666672C6.64802 0.666672 0.666687 6.64801 0.666687 14V19.524C0.666687 20.8893 1.86269 22 3.33335 22H4.66669C5.02031 22 5.35945 21.8595 5.6095 21.6095C5.85954 21.3594 6.00002 21.0203 6.00002 20.6667V13.8093C6.00002 13.4557 5.85954 13.1166 5.6095 12.8665C5.35945 12.6165 5.02031 12.476 4.66669 12.476H3.45602C4.19735 7.31601 8.63735 3.33334 14 3.33334C19.3627 3.33334 23.8027 7.31601 24.544 12.476H23.3334C22.9797 12.476 22.6406 12.6165 22.3905 12.8665C22.1405 13.1166 22 13.4557 22 13.8093V22C22 23.4707 20.804 24.6667 19.3334 24.6667H16.6667V23.3333H11.3334V27.3333H19.3334C22.2747 27.3333 24.6667 24.9413 24.6667 22C26.1374 22 27.3334 20.8893 27.3334 19.524V14C27.3334 6.64801 21.352 0.666672 14 0.666672Z" fill="white"/>
</svg>
