<svg width="28" height="26" viewBox="0 0 28 26" fill="none" xmlns="http://www.w3.org/2000/svg">
<path d="M26.9 9.05C26.1972 7.38659 25.1784 5.87533 23.9 4.6C22.6247 3.32159 21.1134 2.30276 19.45 1.6C17.7219 0.86875 15.8906 0.5 14 0.5C12.1094 0.5 10.2781 0.86875 8.55 1.6C6.88659 2.30276 5.37533 3.32159 4.1 4.6C2.82159 5.87533 1.80276 7.38659 1.1 9.05C0.36875 10.7781 0 12.6094 0 14.5C0 18.6469 1.82187 22.5531 4.99687 25.2219L5.05 25.2656C5.23125 25.4156 5.45937 25.5 5.69375 25.5H22.3094C22.5438 25.5 22.7719 25.4156 22.9531 25.2656L23.0063 25.2219C26.1781 22.5531 28 18.6469 28 14.5C28 12.6094 27.6281 10.7781 26.9 9.05ZM21.7938 23.125H6.20625C4.99874 22.0362 4.03365 20.7057 3.37361 19.2198C2.71358 17.734 2.37335 16.1259 2.375 14.5C2.375 11.3937 3.58437 8.475 5.78125 6.28125C7.97813 4.08437 10.8969 2.875 14 2.875C17.1063 2.875 20.025 4.08437 22.2188 6.28125C24.4156 8.47813 25.625 11.3969 25.625 14.5C25.625 17.8 24.2344 20.9219 21.7938 23.125ZM17.4844 10.1719C17.4374 10.1253 17.3739 10.0992 17.3078 10.0992C17.2417 10.0992 17.1782 10.1253 17.1313 10.1719L14.4906 12.8125C13.9063 12.6562 13.2594 12.8063 12.8 13.2656C12.6373 13.428 12.5082 13.6209 12.4201 13.8333C12.3321 14.0456 12.2867 14.2732 12.2867 14.5031C12.2867 14.733 12.3321 14.9606 12.4201 15.173C12.5082 15.3853 12.6373 15.5782 12.8 15.7406C12.9624 15.9033 13.1553 16.0324 13.3676 16.1205C13.58 16.2086 13.8076 16.2539 14.0375 16.2539C14.2674 16.2539 14.495 16.2086 14.7074 16.1205C14.9197 16.0324 15.1126 15.9033 15.275 15.7406C15.4926 15.5236 15.6492 15.253 15.7287 14.9562C15.8083 14.6593 15.8081 14.3467 15.7281 14.05L18.3687 11.4094C18.4656 11.3125 18.4656 11.1531 18.3687 11.0562L17.4844 10.1719V10.1719ZM13.3125 7H14.6875C14.825 7 14.9375 6.8875 14.9375 6.75V4.25C14.9375 4.1125 14.825 4 14.6875 4H13.3125C13.175 4 13.0625 4.1125 13.0625 4.25V6.75C13.0625 6.8875 13.175 7 13.3125 7ZM21.4375 13.8125V15.1875C21.4375 15.325 21.55 15.4375 21.6875 15.4375H24.1875C24.325 15.4375 24.4375 15.325 24.4375 15.1875V13.8125C24.4375 13.675 24.325 13.5625 24.1875 13.5625H21.6875C21.55 13.5625 21.4375 13.675 21.4375 13.8125ZM21.8344 7.65L20.8625 6.67813C20.8155 6.6316 20.7521 6.6055 20.6859 6.6055C20.6198 6.6055 20.5564 6.6316 20.5094 6.67813L18.7406 8.44687C18.6941 8.49386 18.668 8.55731 18.668 8.62344C18.668 8.68956 18.6941 8.75301 18.7406 8.8L19.7125 9.77188C19.8094 9.86875 19.9687 9.86875 20.0656 9.77188L21.8344 8.00313C21.9313 7.90625 21.9313 7.74687 21.8344 7.65ZM7.50313 6.67813C7.45614 6.6316 7.39269 6.6055 7.32656 6.6055C7.26044 6.6055 7.19699 6.6316 7.15 6.67813L6.17813 7.65C6.1316 7.69699 6.1055 7.76044 6.1055 7.82656C6.1055 7.89269 6.1316 7.95614 6.17813 8.00313L7.94687 9.77188C8.04375 9.86875 8.20313 9.86875 8.3 9.77188L9.27188 8.8C9.36875 8.70313 9.36875 8.54375 9.27188 8.44687L7.50313 6.67813ZM6.1875 13.5625H3.6875C3.55 13.5625 3.4375 13.675 3.4375 13.8125V15.1875C3.4375 15.325 3.55 15.4375 3.6875 15.4375H6.1875C6.325 15.4375 6.4375 15.325 6.4375 15.1875V13.8125C6.4375 13.675 6.325 13.5625 6.1875 13.5625Z" fill="white"/>
</svg>
