<svg width="22" height="21" viewBox="0 0 22 21" fill="none" xmlns="http://www.w3.org/2000/svg">
<path fill-rule="evenodd" clip-rule="evenodd" d="M10.7371 0.220795C7.91769 0.220795 7.56416 0.232745 6.45687 0.283268C5.35189 0.333666 4.59723 0.509176 3.9369 0.765825C3.25423 1.03109 2.67529 1.38606 2.09811 1.96319C1.52098 2.54037 1.16601 3.11931 0.900743 3.80198C0.644094 4.46232 0.468584 5.21698 0.418186 6.32195C0.367664 7.42924 0.355713 7.78277 0.355713 10.6022C0.355713 13.4216 0.367664 13.7751 0.418186 14.8824C0.468584 15.9874 0.644094 16.7421 0.900743 17.4024C1.16601 18.0851 1.52098 18.664 2.09811 19.2412C2.67529 19.8183 3.25423 20.1733 3.9369 20.4386C4.59723 20.6952 5.35189 20.8707 6.45687 20.9211C7.56416 20.9716 7.91769 20.9836 10.7371 20.9836C13.5565 20.9836 13.9101 20.9716 15.0173 20.9211C16.1223 20.8707 16.877 20.6952 17.5373 20.4386C18.22 20.1733 18.7989 19.8183 19.3761 19.2412C19.9532 18.664 20.3082 18.0851 20.5735 17.4024C20.8301 16.7421 21.0056 15.9874 21.056 14.8824C21.1066 13.7751 21.1185 13.4216 21.1185 10.6022C21.1185 7.78277 21.1066 7.42924 21.056 6.32195C21.0056 5.21698 20.8301 4.46232 20.5735 3.80198C20.3082 3.11931 19.9532 2.54037 19.3761 1.96319C18.7989 1.38606 18.22 1.03109 17.5373 0.765825C16.877 0.509176 16.1223 0.333666 15.0173 0.283268C13.9101 0.232745 13.5565 0.220795 10.7371 0.220795ZM10.7371 2.09125C13.5091 2.09125 13.8374 2.10184 14.9321 2.15179C15.9443 2.19794 16.4939 2.36707 16.8598 2.50924C17.3443 2.69756 17.6902 2.92252 18.0534 3.28582C18.4167 3.64908 18.6417 3.9949 18.83 4.47948C18.9722 4.84529 19.1413 5.39498 19.1875 6.40716C19.2374 7.50183 19.248 7.83018 19.248 10.6021C19.248 13.3741 19.2374 13.7024 19.1875 14.7971C19.1413 15.8093 18.9722 16.359 18.83 16.7248C18.6417 17.2094 18.4167 17.5552 18.0534 17.9184C17.6902 18.2817 17.3443 18.5067 16.8598 18.695C16.4939 18.8372 15.9443 19.0063 14.9321 19.0525C13.8376 19.1024 13.5093 19.113 10.7371 19.113C7.96496 19.113 7.63669 19.1024 6.54214 19.0525C5.52996 19.0063 4.98027 18.8372 4.61446 18.695C4.12988 18.5067 3.78406 18.2817 3.4208 17.9184C3.05754 17.5552 2.83254 17.2094 2.64422 16.7248C2.50205 16.359 2.33292 15.8093 2.28677 14.7971C2.23682 13.7024 2.22623 13.3741 2.22623 10.6021C2.22623 7.83018 2.23682 7.50183 2.28677 6.40716C2.33292 5.39498 2.50205 4.84529 2.64422 4.47948C2.83254 3.9949 3.0575 3.64908 3.4208 3.28582C3.78406 2.92252 4.12988 2.69756 4.61446 2.50924C4.98027 2.36707 5.52996 2.19794 6.54214 2.15179C7.63681 2.10184 7.96516 2.09125 10.7371 2.09125ZM5.40614 10.6022C5.40614 7.65798 7.79289 5.27123 10.7371 5.27123C13.6814 5.27123 16.0681 7.65798 16.0681 10.6022C16.0681 13.5465 13.6814 15.9332 10.7371 15.9332C7.79289 15.9332 5.40614 13.5465 5.40614 10.6022ZM10.7371 14.0626C8.82595 14.0626 7.27665 12.5133 7.27665 10.6022C7.27665 8.691 8.82595 7.14171 10.7371 7.14171C12.6483 7.14171 14.1976 8.691 14.1976 10.6022C14.1976 12.5133 12.6483 14.0626 10.7371 14.0626ZM16.2787 6.30627C16.9667 6.30627 17.5245 5.74854 17.5245 5.06052C17.5245 4.37249 16.9667 3.81473 16.2787 3.81473C15.5907 3.81473 15.033 4.37249 15.033 5.06052C15.033 5.74854 15.5907 6.30627 16.2787 6.30627Z" fill="#0081FE" fill-opacity="0.7"/>
</svg>
