<svg width="35" height="35" viewBox="0 0 35 35" fill="none" xmlns="http://www.w3.org/2000/svg">
<path d="M20.1688 27.7083C19.9509 27.7091 19.7356 27.661 19.5388 27.5676C19.3419 27.4742 19.1685 27.338 19.0313 27.1688L11.9875 18.4188C11.773 18.1578 11.6557 17.8305 11.6557 17.4927C11.6557 17.1549 11.773 16.8276 11.9875 16.5667L19.2792 7.81667C19.5267 7.51885 19.8824 7.33156 20.268 7.29601C20.6537 7.26046 21.0376 7.37955 21.3354 7.62708C21.6332 7.87462 21.8205 8.23032 21.8561 8.61594C21.8916 9.00157 21.7725 9.38552 21.525 9.68333L15.0062 17.5L21.3063 25.3167C21.4846 25.5307 21.5979 25.7914 21.6327 26.0678C21.6675 26.3442 21.6224 26.6249 21.5028 26.8765C21.3831 27.1281 21.1939 27.3401 20.9574 27.4876C20.721 27.635 20.4473 27.7116 20.1688 27.7083Z" fill="black"/>
</svg>
