<svg width="17" height="23" viewBox="0 0 17 23" fill="none" xmlns="http://www.w3.org/2000/svg">
<path fill-rule="evenodd" clip-rule="evenodd" d="M0.844116 8.179C0.844116 3.715 4.45454 0.104584 8.91854 0.104584C13.3825 0.104584 16.993 3.715 16.993 8.179C16.993 12.989 11.8945 19.6216 9.80672 22.1477C9.34533 22.7014 8.50328 22.7014 8.04188 22.1477C5.94253 19.6216 0.844116 12.989 0.844116 8.179ZM6.03481 8.17904C6.03481 9.77085 7.32672 11.0628 8.91854 11.0628C10.5103 11.0628 11.8023 9.77085 11.8023 8.17904C11.8023 6.58722 10.5103 5.29532 8.91854 5.29532C7.32672 5.29532 6.03481 6.58722 6.03481 8.17904Z" fill="#F12B2B"/>
</svg>
