<svg width="28" height="28" viewBox="0 0 28 28" fill="none" xmlns="http://www.w3.org/2000/svg">
<path d="M25.125 20.875H22.9281C22.7781 20.875 22.6375 20.9406 22.5437 21.0563C22.325 21.3219 22.0906 21.5781 21.8437 21.8219C20.834 22.8326 19.638 23.6381 18.3219 24.1938C16.9583 24.7697 15.4927 25.0652 14.0125 25.0625C12.5156 25.0625 11.0656 24.7688 9.70314 24.1938C8.38698 23.6381 7.19097 22.8326 6.18127 21.8219C5.16975 20.8146 4.3632 19.6207 3.80627 18.3063C3.22815 16.9438 2.93752 15.4969 2.93752 14C2.93752 12.5031 3.23127 11.0563 3.80627 9.69376C4.36252 8.37813 5.16252 7.19375 6.18127 6.17813C7.20002 5.1625 8.38439 4.3625 9.70314 3.80625C11.0656 3.23125 12.5156 2.9375 14.0125 2.9375C15.5094 2.9375 16.9594 3.22813 18.3219 3.80625C19.6406 4.3625 20.825 5.1625 21.8437 6.17813C22.0906 6.425 22.3219 6.68125 22.5437 6.94375C22.6375 7.05938 22.7812 7.125 22.9281 7.125H25.125C25.3219 7.125 25.4437 6.90625 25.3344 6.74063C22.9375 3.01563 18.7438 0.55 13.9781 0.5625C6.49064 0.58125 0.487524 6.65938 0.562524 14.1375C0.637524 21.4969 6.63127 27.4375 14.0125 27.4375C18.7656 27.4375 22.9406 24.975 25.3344 21.2594C25.4406 21.0938 25.3219 20.875 25.125 20.875ZM27.9031 13.8031L23.4687 10.3031C23.3031 10.1719 23.0625 10.2906 23.0625 10.5V12.875H13.25C13.1125 12.875 13 12.9875 13 13.125V14.875C13 15.0125 13.1125 15.125 13.25 15.125H23.0625V17.5C23.0625 17.7094 23.3062 17.8281 23.4687 17.6969L27.9031 14.1969C27.933 14.1735 27.9572 14.1436 27.9738 14.1095C27.9904 14.0754 27.999 14.038 27.999 14C27.999 13.9621 27.9904 13.9246 27.9738 13.8905C27.9572 13.8564 27.933 13.8265 27.9031 13.8031Z" fill="#FB4B4B"/>
</svg>
