<svg width="21" height="21" viewBox="0 0 21 21" fill="none" xmlns="http://www.w3.org/2000/svg">
<path d="M10.4726 0.220764C4.73953 0.220764 0.0905762 4.86849 0.0905762 10.6028C0.0905762 14.8525 2.64701 18.5053 6.30586 20.1107C6.27656 19.3867 6.30098 18.515 6.48533 17.7264C6.68554 16.884 7.82092 12.0702 7.82092 12.0702C7.82092 12.0702 7.49008 11.4073 7.49008 10.427C7.49008 8.88871 8.38251 7.73991 9.49225 7.73991C10.436 7.73991 10.8926 8.44921 10.8926 9.29891C10.8926 10.2475 10.287 11.6673 9.9757 12.9822C9.71566 14.0846 10.5275 14.9819 11.6141 14.9819C13.5808 14.9819 14.9054 12.456 14.9054 9.46251C14.9054 7.18809 13.3733 5.48502 10.5861 5.48502C7.43758 5.48502 5.47569 7.83269 5.47569 10.455C5.47569 11.3609 5.74184 11.9982 6.15936 12.4914C6.35225 12.7197 6.37789 12.81 6.3083 13.0713C6.25947 13.2605 6.14471 13.722 6.0971 13.9039C6.02751 14.1664 5.81509 14.2616 5.57824 14.164C4.12667 13.5718 3.45154 11.9835 3.45154 10.1975C3.45154 7.24913 5.93839 3.71114 10.8706 3.71114C14.8346 3.71114 17.4436 6.58133 17.4436 9.65906C17.4436 13.7318 15.1801 16.7741 11.8411 16.7741C10.7216 16.7741 9.66683 16.1686 9.30546 15.4812C9.30546 15.4812 8.70237 17.8729 8.5754 18.3343C8.35565 19.134 7.92469 19.9349 7.53036 20.5575C8.4643 20.8334 9.45074 20.9836 10.4726 20.9836C16.2056 20.9836 20.8534 16.3358 20.8534 10.6028C20.8534 4.86849 16.2056 0.220764 10.4726 0.220764Z" fill="#0081FE" fill-opacity="0.7"/>
</svg>
