<svg width="24" height="22" viewBox="0 0 24 22" fill="none" xmlns="http://www.w3.org/2000/svg">
<path fill-rule="evenodd" clip-rule="evenodd" d="M6.60228 0.397552H18.1372C18.7716 0.397552 19.2907 0.916622 19.2907 1.55104V3.85802C19.2907 4.49244 18.7716 5.01151 18.1372 5.01151H6.60228C5.96786 5.01151 5.44879 4.49244 5.44879 3.85802V1.55104C5.44879 0.916622 5.96786 0.397552 6.60228 0.397552ZM4.2953 6.16499H20.4441C22.3589 6.16499 23.9046 7.71067 23.9046 9.62546V14.2394C23.9046 15.5083 22.8665 16.5464 21.5976 16.5464H19.2907V18.8534C19.2907 20.1222 18.2525 21.1603 16.9837 21.1603H7.75577C6.48693 21.1603 5.44879 20.1222 5.44879 18.8534V16.5464H3.14182C1.87298 16.5464 0.834839 15.5083 0.834839 14.2394V9.62546C0.834839 7.71067 2.38051 6.16499 4.2953 6.16499ZM8.90926 18.8534H15.8302C16.4646 18.8534 16.9837 18.3343 16.9837 17.6999V13.0859H7.75577V17.6999C7.75577 18.3343 8.27484 18.8534 8.90926 18.8534ZM20.4441 10.7789C19.8097 10.7789 19.2907 10.2599 19.2907 9.62546C19.2907 8.99104 19.8097 8.47197 20.4441 8.47197C21.0786 8.47197 21.5976 8.99104 21.5976 9.62546C21.5976 10.2599 21.0786 10.7789 20.4441 10.7789Z" fill="#0081FE" fill-opacity="0.7"/>
</svg>
