<svg width="18" height="18" viewBox="0 0 18 18" fill="none" xmlns="http://www.w3.org/2000/svg">
<path d="M5.11947 7.83267L5.68047 7.912L5.11947 7.83267ZM5.10813 7.912L4.54713 7.83267L5.10813 7.912ZM12.8805 7.83267L13.4415 7.75333L12.8805 7.83267ZM12.8919 7.912L12.3309 7.99133L12.8919 7.912ZM11.2667 14.6667V15.2333C11.417 15.2333 11.5611 15.1736 11.6674 15.0674C11.7736 14.9611 11.8333 14.817 11.8333 14.6667H11.2667ZM6.73333 14.6667H6.16667C6.16667 14.817 6.22637 14.9611 6.33264 15.0674C6.43891 15.1736 6.58304 15.2333 6.73333 15.2333V14.6667ZM5.889 10.8734L6.3378 10.5266L5.889 10.8734ZM12.111 10.8734L11.6622 10.5266L12.111 10.8734ZM7.3 17.5H10.7V16.3667H7.3V17.5ZM4.55733 7.75333L4.546 7.83267L5.668 7.99133L5.67933 7.912L4.55733 7.75333ZM9 3.9C7.91964 3.89982 6.87549 4.28945 6.05935 4.99733C5.2432 5.70521 4.70988 6.6838 4.55733 7.75333L5.67933 7.912C5.79365 7.11283 6.19242 6.38173 6.80241 5.85292C7.41241 5.32412 8.1927 5.03311 9 5.03333V3.9ZM13.4427 7.75333C13.2901 6.6838 12.7568 5.70521 11.9407 4.99733C11.1245 4.28945 10.0804 3.89982 9 3.9V5.03333C9.80723 5.03335 10.5874 5.32444 11.1973 5.8532C11.8073 6.38196 12.2061 7.11293 12.3207 7.912L13.4427 7.75333ZM13.454 7.83267L13.4427 7.75333L12.3207 7.912L12.332 7.99133L13.454 7.83267ZM12.5587 11.2202C13.2727 10.2977 13.6331 9.0952 13.454 7.83153L12.332 7.99247C12.3969 8.43813 12.3711 8.8923 12.2562 9.32776C12.1413 9.76322 11.9397 10.171 11.6633 10.5266L12.5587 11.2202ZM10.7 12.8533V14.6667H11.8333V12.8545H10.7V12.8533ZM11.2667 14.1H6.73333V15.2333H11.2667V14.1ZM7.3 14.6667V12.8545H6.16667V14.6667H7.3ZM4.546 7.83267C4.45985 8.4285 4.49473 9.0356 4.64857 9.61764C4.80241 10.1997 5.07204 10.7447 5.44133 11.2202L6.33667 10.5266C6.06033 10.171 5.85867 9.76322 5.74376 9.32776C5.62886 8.8923 5.60309 8.43813 5.668 7.99247L4.546 7.83153V7.83267ZM7.3 12.8533C7.3 11.9206 6.8036 11.1273 6.33667 10.5255L5.44133 11.2191C5.8754 11.7801 6.16667 12.3161 6.16667 12.8533H7.3ZM11.6633 10.5255C11.1953 11.1284 10.7 11.9206 10.7 12.8533H11.8333C11.8333 12.3161 12.1246 11.7801 12.5587 11.2191L11.6633 10.5255ZM8.43333 0.5V2.76667H9.56667V0.5H8.43333ZM0.5 9.56667H2.76667V8.43333H0.5V9.56667ZM15.2333 9.56667H17.5V8.43333H15.2333V9.56667ZM4.3012 4.63213L2.6012 2.93213L1.7988 3.73453L3.4988 5.43453L4.3012 4.63213ZM14.5012 5.43453L16.2012 3.73453L15.3988 2.93213L13.6988 4.63213L14.5012 5.43453Z" fill="#FFD401"/>
</svg>
