<svg width="17" height="17" viewBox="0 0 17 17" fill="none" xmlns="http://www.w3.org/2000/svg">
<path d="M16.15 0.346497H10.2C9.57065 0.348628 8.96462 0.584977 8.5 1.0095C8.03538 0.584977 7.42935 0.348628 6.8 0.346497H0.85C0.624566 0.346497 0.408365 0.43605 0.248959 0.595456C0.0895533 0.754862 0 0.971063 0 1.1965V13.9465C0 14.1719 0.0895533 14.3881 0.248959 14.5475C0.408365 14.7069 0.624566 14.7965 0.85 14.7965H5.7443C6.1914 14.7965 6.63 14.9784 6.9462 15.2946L7.89905 16.2474C7.9067 16.2551 7.9169 16.2576 7.92455 16.2653C7.99765 16.3324 8.07925 16.3919 8.17445 16.4319H8.17615C8.38352 16.5177 8.61648 16.5177 8.82385 16.4319H8.82555C8.92075 16.3919 9.00235 16.3324 9.07545 16.2653C9.0831 16.2576 9.0933 16.2551 9.10095 16.2474L10.0538 15.2946C10.3733 14.9769 10.8051 14.798 11.2557 14.7965H16.15C16.3754 14.7965 16.5916 14.7069 16.751 14.5475C16.9104 14.3881 17 14.1719 17 13.9465V1.1965C17 0.971063 16.9104 0.754862 16.751 0.595456C16.5916 0.43605 16.3754 0.346497 16.15 0.346497ZM5.7443 13.0965H1.7V2.0465H6.8C7.2692 2.0465 7.65 2.42815 7.65 2.8965V13.6821C7.08684 13.3024 6.42353 13.0986 5.7443 13.0965ZM15.3 13.0965H11.2557C10.5765 13.0965 9.9093 13.3056 9.35 13.6821V2.8965C9.35 2.42815 9.7308 2.0465 10.2 2.0465H15.3V13.0965Z" fill="#5375E2"/>
</svg>
