<svg width="23" height="22" viewBox="0 0 23 22" fill="none" xmlns="http://www.w3.org/2000/svg">
<path d="M22.1607 20.0684L14.9901 13.3924C16.1028 12.053 16.7048 10.4155 16.7048 8.69317C16.7048 6.63148 15.8405 4.69834 14.2778 3.24076C12.715 1.78319 10.6331 0.98114 8.42147 0.98114C6.20983 0.98114 4.12797 1.78576 2.56519 3.24076C0.999645 4.69577 0.138184 6.63148 0.138184 8.69317C0.138184 10.7523 1.00241 12.6906 2.56519 14.1456C4.12797 15.6031 6.20707 16.4052 8.42147 16.4052C10.2714 16.4052 12.0275 15.8448 13.466 14.8114L20.6366 21.4848C20.6576 21.5044 20.6825 21.52 20.71 21.5306C20.7375 21.5412 20.767 21.5466 20.7967 21.5466C20.8264 21.5466 20.8559 21.5412 20.8834 21.5306C20.9109 21.52 20.9358 21.5044 20.9568 21.4848L22.1607 20.3666C22.1817 20.347 22.1984 20.3238 22.2098 20.2982C22.2212 20.2726 22.227 20.2452 22.227 20.2175C22.227 20.1898 22.2212 20.1624 22.2098 20.1368C22.1984 20.1112 22.1817 20.088 22.1607 20.0684ZM12.795 12.7651C11.6243 13.8525 10.0726 14.4515 8.42147 14.4515C6.77034 14.4515 5.2186 13.8525 4.0479 12.7651C2.87995 11.6751 2.23662 10.2304 2.23662 8.69317C2.23662 7.1559 2.87995 5.70861 4.0479 4.62122C5.2186 3.53382 6.77034 2.93485 8.42147 2.93485C10.0726 2.93485 11.6271 3.53125 12.795 4.62122C13.963 5.71118 14.6063 7.1559 14.6063 8.69317C14.6063 10.2304 13.963 11.6777 12.795 12.7651Z" fill="white"/>
</svg>
