<svg width="163" height="32" viewBox="0 0 163 32" fill="none" xmlns="http://www.w3.org/2000/svg">
<path d="M9.428 27.55C7.734 27.55 6.216 27.275 4.874 26.725C3.532 26.175 2.454 25.361 1.64 24.283C0.848 23.205 0.43 21.907 0.386 20.389H6.392C6.48 21.247 6.777 21.907 7.283 22.369C7.789 22.809 8.449 23.029 9.263 23.029C10.099 23.029 10.759 22.842 11.243 22.468C11.727 22.072 11.969 21.533 11.969 20.851C11.969 20.279 11.771 19.806 11.375 19.432C11.001 19.058 10.528 18.75 9.956 18.508C9.406 18.266 8.614 17.991 7.58 17.683C6.084 17.221 4.863 16.759 3.917 16.297C2.971 15.835 2.157 15.153 1.475 14.251C0.793 13.349 0.452 12.172 0.452 10.72C0.452 8.56397 1.233 6.88097 2.795 5.67097C4.357 4.43897 6.392 3.82297 8.9 3.82297C11.452 3.82297 13.509 4.43897 15.071 5.67097C16.633 6.88097 17.469 8.57497 17.579 10.753H11.474C11.43 10.005 11.155 9.42197 10.649 9.00397C10.143 8.56397 9.494 8.34397 8.702 8.34397C8.02 8.34397 7.47 8.53097 7.052 8.90497C6.634 9.25697 6.425 9.77397 6.425 10.456C6.425 11.204 6.777 11.787 7.481 12.205C8.185 12.623 9.285 13.074 10.781 13.558C12.277 14.064 13.487 14.548 14.411 15.01C15.357 15.472 16.171 16.143 16.853 17.023C17.535 17.903 17.876 19.036 17.876 20.422C17.876 21.742 17.535 22.941 16.853 24.019C16.193 25.097 15.225 25.955 13.949 26.593C12.673 27.231 11.166 27.55 9.428 27.55ZM31.6117 22.534V27.319H28.7407C26.6947 27.319 25.0997 26.824 23.9557 25.834C22.8117 24.822 22.2397 23.183 22.2397 20.917V13.591H19.9957V8.90497H22.2397V4.41697H27.8827V8.90497H31.5787V13.591H27.8827V20.983C27.8827 21.533 28.0147 21.929 28.2787 22.171C28.5427 22.413 28.9827 22.534 29.5987 22.534H31.6117ZM33.633 18.079C33.633 16.187 33.985 14.526 34.689 13.096C35.415 11.666 36.394 10.566 37.626 9.79597C38.858 9.02597 40.233 8.64097 41.751 8.64097C43.049 8.64097 44.182 8.90497 45.15 9.43297C46.14 9.96097 46.899 10.654 47.427 11.512V8.90497H53.07V27.319H47.427V24.712C46.877 25.57 46.107 26.263 45.117 26.791C44.149 27.319 43.016 27.583 41.718 27.583C40.222 27.583 38.858 27.198 37.626 26.428C36.394 25.636 35.415 24.525 34.689 23.095C33.985 21.643 33.633 19.971 33.633 18.079ZM47.427 18.112C47.427 16.704 47.031 15.593 46.239 14.779C45.469 13.965 44.523 13.558 43.401 13.558C42.279 13.558 41.322 13.965 40.53 14.779C39.76 15.571 39.375 16.671 39.375 18.079C39.375 19.487 39.76 20.609 40.53 21.445C41.322 22.259 42.279 22.666 43.401 22.666C44.523 22.666 45.469 22.259 46.239 21.445C47.031 20.631 47.427 19.52 47.427 18.112ZM62.7954 11.974C63.4554 10.962 64.2804 10.17 65.2704 9.59797C66.2604 9.00397 67.3604 8.70697 68.5704 8.70697V14.68H67.0194C65.6114 14.68 64.5554 14.988 63.8514 15.604C63.1474 16.198 62.7954 17.254 62.7954 18.772V27.319H57.1524V8.90497H62.7954V11.974ZM81.5307 22.534V27.319H78.6597C76.6137 27.319 75.0187 26.824 73.8747 25.834C72.7307 24.822 72.1587 23.183 72.1587 20.917V13.591H69.9147V8.90497H72.1587V4.41697H77.8017V8.90497H81.4977V13.591H77.8017V20.983C77.8017 21.533 77.9337 21.929 78.1977 22.171C78.4617 22.413 78.9017 22.534 79.5177 22.534H81.5307ZM108.167 31.279L105.197 27.286C104.317 27.462 103.459 27.55 102.623 27.55C100.445 27.55 98.4431 27.044 96.6171 26.032C94.8131 25.02 93.3721 23.612 92.2941 21.808C91.2381 19.982 90.7101 17.936 90.7101 15.67C90.7101 13.404 91.2381 11.369 92.2941 9.56497C93.3721 7.76097 94.8131 6.35297 96.6171 5.34097C98.4431 4.32897 100.445 3.82297 102.623 3.82297C104.801 3.82297 106.792 4.32897 108.596 5.34097C110.422 6.35297 111.852 7.76097 112.886 9.56497C113.942 11.369 114.47 13.404 114.47 15.67C114.47 17.65 114.063 19.465 113.249 21.115C112.457 22.743 111.346 24.096 109.916 25.174L114.998 31.279H108.167ZM96.4851 15.67C96.4851 17.716 97.0351 19.355 98.1351 20.587C99.2571 21.797 100.753 22.402 102.623 22.402C104.471 22.402 105.945 21.786 107.045 20.554C108.167 19.322 108.728 17.694 108.728 15.67C108.728 13.624 108.167 11.996 107.045 10.786C105.945 9.55397 104.471 8.93797 102.623 8.93797C100.753 8.93797 99.2571 9.54297 98.1351 10.753C97.0351 11.963 96.4851 13.602 96.4851 15.67ZM135.857 8.90497V27.319H130.214V24.811C129.642 25.625 128.861 26.285 127.871 26.791C126.903 27.275 125.825 27.517 124.637 27.517C123.229 27.517 121.986 27.209 120.908 26.593C119.83 25.955 118.994 25.042 118.4 23.854C117.806 22.666 117.509 21.269 117.509 19.663V8.90497H123.119V18.904C123.119 20.136 123.438 21.093 124.076 21.775C124.714 22.457 125.572 22.798 126.65 22.798C127.75 22.798 128.619 22.457 129.257 21.775C129.895 21.093 130.214 20.136 130.214 18.904V8.90497H135.857ZM142.748 6.99097C141.758 6.99097 140.944 6.70497 140.306 6.13297C139.69 5.53897 139.382 4.81297 139.382 3.95497C139.382 3.07497 139.69 2.34897 140.306 1.77697C140.944 1.18297 141.758 0.885968 142.748 0.885968C143.716 0.885968 144.508 1.18297 145.124 1.77697C145.762 2.34897 146.081 3.07497 146.081 3.95497C146.081 4.81297 145.762 5.53897 145.124 6.13297C144.508 6.70497 143.716 6.99097 142.748 6.99097ZM145.553 8.90497V27.319H139.91V8.90497H145.553ZM154.923 22.666H162.909V27.319H148.62V22.831L156.276 13.558H148.686V8.90497H162.744V13.393L154.923 22.666Z" fill="#5375E2"/>
</svg>
