<svg width="23" height="25" viewBox="0 0 23 25" fill="none" xmlns="http://www.w3.org/2000/svg">
<path d="M21.5748 19.9958C21.0221 18.6868 20.2201 17.4977 19.2135 16.4949C18.2098 15.4891 17.021 14.6873 15.7125 14.1335C15.7008 14.1277 15.689 14.1248 15.6773 14.1189C17.5025 12.8005 18.689 10.6531 18.689 8.23022C18.689 4.21655 15.4371 0.9646 11.4234 0.9646C7.40974 0.9646 4.15779 4.21655 4.15779 8.23022C4.15779 10.6531 5.34431 12.8005 7.16951 14.1218C7.15779 14.1277 7.14607 14.1306 7.13435 14.1365C5.82185 14.6902 4.64412 15.4841 3.63338 16.4978C2.62764 17.5014 1.82577 18.6903 1.27205 19.9988C0.728068 21.2798 0.434688 22.6532 0.407788 24.0447C0.407006 24.0759 0.412491 24.1071 0.423918 24.1362C0.435346 24.1653 0.452486 24.1918 0.474328 24.2142C0.49617 24.2366 0.522273 24.2544 0.551097 24.2665C0.579922 24.2787 0.610885 24.2849 0.642163 24.2849H2.39998C2.52888 24.2849 2.63142 24.1824 2.63435 24.0564C2.69295 21.7947 3.60115 19.6765 5.20662 18.071C6.86775 16.4099 9.07381 15.4958 11.4234 15.4958C13.773 15.4958 15.9791 16.4099 17.6402 18.071C19.2457 19.6765 20.1539 21.7947 20.2125 24.0564C20.2154 24.1853 20.3179 24.2849 20.4469 24.2849H22.2047C22.2359 24.2849 22.2669 24.2787 22.2957 24.2665C22.3246 24.2544 22.3507 24.2366 22.3725 24.2142C22.3943 24.1918 22.4115 24.1653 22.4229 24.1362C22.4343 24.1071 22.4398 24.0759 22.439 24.0447C22.4097 22.6443 22.1197 21.282 21.5748 19.9958ZM11.4234 13.2693C10.0787 13.2693 8.81306 12.7449 7.86091 11.7927C6.90877 10.8406 6.38435 9.57495 6.38435 8.23022C6.38435 6.8855 6.90877 5.61987 7.86091 4.66772C8.81306 3.71558 10.0787 3.19116 11.4234 3.19116C12.7681 3.19116 14.0338 3.71558 14.9859 4.66772C15.9381 5.61987 16.4625 6.8855 16.4625 8.23022C16.4625 9.57495 15.9381 10.8406 14.9859 11.7927C14.0338 12.7449 12.7681 13.2693 11.4234 13.2693Z" fill="white"/>
</svg>
