<svg width="158" height="125" viewBox="0 0 158 125" fill="none" xmlns="http://www.w3.org/2000/svg">
<g clip-path="url(#clip0_4_2)">
<path d="M76.625 16.7938C80.7125 12.4875 87.7625 11.2563 96.075 12.0938C103.788 12.8688 111.719 15.3625 117.25 17.675V79.6938C111.513 77.5063 104.081 75.3688 96.7063 74.6313C89.8688 73.9375 82.4688 74.3875 76.625 77.7063V16.7938ZM73.5 11.1438C67.3438 5.85 58.4188 5.0625 50.2938 5.875C40.8313 6.83125 31.2813 10.075 25.3313 12.7813C24.7853 13.0296 24.3223 13.4297 23.9976 13.934C23.6729 14.4382 23.5002 15.0252 23.5 15.625V84.375C23.5001 84.8979 23.6315 85.4123 23.882 85.8713C24.1325 86.3302 24.4941 86.719 24.9338 87.002C25.3735 87.2849 25.8772 87.4531 26.3986 87.4909C26.9201 87.5288 27.4428 87.4352 27.9188 87.2188C33.4313 84.7188 42.3125 81.7125 50.9188 80.8438C59.725 79.9563 67.1062 81.3875 71.0625 86.325C71.3553 86.69 71.7264 86.9845 72.1482 87.187C72.5701 87.3894 73.0321 87.4944 73.5 87.4944C73.9679 87.4944 74.4299 87.3894 74.8518 87.187C75.2736 86.9845 75.6447 86.69 75.9375 86.325C79.8938 81.3875 87.275 79.9563 96.075 80.8438C104.688 81.7125 113.575 84.7188 119.081 87.2188C119.557 87.4352 120.08 87.5288 120.601 87.4909C121.123 87.4531 121.626 87.2849 122.066 87.002C122.506 86.719 122.868 86.3302 123.118 85.8713C123.369 85.4123 123.5 84.8979 123.5 84.375V15.625C123.5 15.0252 123.327 14.4382 123.002 13.934C122.678 13.4297 122.215 13.0296 121.669 12.7813C115.719 10.075 106.169 6.83125 96.7063 5.875C88.5813 5.05625 79.6562 5.85 73.5 11.1438Z" fill="#62BDFE"/>
<path d="M85.0605 36.2266H85.9395C86.0176 36.2266 86.0566 36.2656 86.0566 36.3438V46.6562C86.0566 46.7344 86.0176 46.7734 85.9395 46.7734H85.0605C84.9824 46.7734 84.9434 46.7344 84.9434 46.6562V36.3438C84.9434 36.2656 84.9824 36.2266 85.0605 36.2266Z" fill="#FCAE2F"/>
<path d="M80.5781 40.9433H90.4219C90.5 40.9433 90.5391 40.9824 90.5391 41.0605V41.9394C90.5391 42.0176 90.5 42.0566 90.4219 42.0566H80.5781C80.5 42.0566 80.4609 42.0176 80.4609 41.9394V41.0605C80.4609 40.9824 80.5 40.9433 80.5781 40.9433Z" fill="#FCAE2F"/>
<path d="M101.121 21.4531H102.879C103.035 21.4531 103.113 21.5312 103.113 21.6875V42.3125C103.113 42.4688 103.035 42.5469 102.879 42.5469H101.121C100.965 42.5469 100.887 42.4688 100.887 42.3125V21.6875C100.887 21.5312 100.965 21.4531 101.121 21.4531Z" fill="#FB4B4B"/>
<path d="M92.1562 30.8867H111.844C112 30.8867 112.078 30.9648 112.078 31.1211V32.8789C112.078 33.0352 112 33.1133 111.844 33.1133H92.1562C92 33.1133 91.9219 33.0352 91.9219 32.8789V31.1211C91.9219 30.9648 92 30.8867 92.1562 30.8867Z" fill="#FB4B4B"/>
<path d="M103.558 45.8144H104.669C104.767 45.8144 104.817 45.8638 104.817 45.9625V58.9976C104.817 59.0964 104.767 59.1457 104.669 59.1457H103.558C103.459 59.1457 103.41 59.0964 103.41 58.9976V45.9625C103.41 45.8638 103.459 45.8144 103.558 45.8144Z" fill="#25FFAE"/>
<path d="M97.8919 51.7765H110.334C110.433 51.7765 110.483 51.8258 110.483 51.9246V53.0355C110.483 53.1343 110.433 53.1837 110.334 53.1837H97.8919C97.7931 53.1837 97.7438 53.1343 97.7438 53.0355V51.9246C97.7438 51.8258 97.7931 51.7765 97.8919 51.7765Z" fill="#25FFAE"/>
</g>
<path d="M1.88 120V106H4.48V117.8H11.8V120H1.88ZM18.535 120.14C17.3483 120.14 16.3083 119.907 15.415 119.44C14.535 118.96 13.8483 118.307 13.355 117.48C12.875 116.653 12.635 115.713 12.635 114.66C12.635 113.593 12.8683 112.653 13.335 111.84C13.815 111.013 14.4683 110.367 15.295 109.9C16.135 109.433 17.0883 109.2 18.155 109.2C19.195 109.2 20.1217 109.427 20.935 109.88C21.7483 110.333 22.3883 110.973 22.855 111.8C23.3217 112.627 23.555 113.6 23.555 114.72C23.555 114.827 23.5483 114.947 23.535 115.08C23.535 115.213 23.5283 115.34 23.515 115.46H14.615V113.8H22.195L21.215 114.32C21.2283 113.707 21.1017 113.167 20.835 112.7C20.5683 112.233 20.2017 111.867 19.735 111.6C19.2817 111.333 18.755 111.2 18.155 111.2C17.5417 111.2 17.0017 111.333 16.535 111.6C16.0817 111.867 15.7217 112.24 15.455 112.72C15.2017 113.187 15.075 113.74 15.075 114.38V114.78C15.075 115.42 15.2217 115.987 15.515 116.48C15.8083 116.973 16.2217 117.353 16.755 117.62C17.2883 117.887 17.9017 118.02 18.595 118.02C19.195 118.02 19.735 117.927 20.215 117.74C20.695 117.553 21.1217 117.26 21.495 116.86L22.835 118.4C22.355 118.96 21.7483 119.393 21.015 119.7C20.295 119.993 19.4683 120.14 18.535 120.14ZM32.2434 120V117.84L32.1034 117.38V113.6C32.1034 112.867 31.8834 112.3 31.4434 111.9C31.0034 111.487 30.3368 111.28 29.4434 111.28C28.8434 111.28 28.2501 111.373 27.6634 111.56C27.0901 111.747 26.6034 112.007 26.2034 112.34L25.2234 110.52C25.7968 110.08 26.4768 109.753 27.2634 109.54C28.0634 109.313 28.8901 109.2 29.7434 109.2C31.2901 109.2 32.4834 109.573 33.3234 110.32C34.1768 111.053 34.6034 112.193 34.6034 113.74V120H32.2434ZM28.8834 120.14C28.0834 120.14 27.3834 120.007 26.7834 119.74C26.1834 119.46 25.7168 119.08 25.3834 118.6C25.0634 118.107 24.9034 117.553 24.9034 116.94C24.9034 116.34 25.0434 115.8 25.3234 115.32C25.6168 114.84 26.0901 114.46 26.7434 114.18C27.3968 113.9 28.2634 113.76 29.3434 113.76H32.4434V115.42H29.5234C28.6701 115.42 28.0968 115.56 27.8034 115.84C27.5101 116.107 27.3634 116.44 27.3634 116.84C27.3634 117.293 27.5434 117.653 27.9034 117.92C28.2634 118.187 28.7634 118.32 29.4034 118.32C30.0168 118.32 30.5634 118.18 31.0434 117.9C31.5368 117.62 31.8901 117.207 32.1034 116.66L32.5234 118.16C32.2834 118.787 31.8501 119.273 31.2234 119.62C30.6101 119.967 29.8301 120.14 28.8834 120.14ZM37.8119 120V109.32H40.1919V112.26L39.9119 111.4C40.2319 110.68 40.7319 110.133 41.4119 109.76C42.1052 109.387 42.9652 109.2 43.9919 109.2V111.58C43.8852 111.553 43.7852 111.54 43.6919 111.54C43.5985 111.527 43.5052 111.52 43.4119 111.52C42.4652 111.52 41.7119 111.8 41.1519 112.36C40.5919 112.907 40.3119 113.727 40.3119 114.82V120H37.8119ZM52.1727 109.2C53.026 109.2 53.786 109.367 54.4527 109.7C55.1327 110.033 55.666 110.547 56.0527 111.24C56.4393 111.92 56.6327 112.8 56.6327 113.88V120H54.1327V114.2C54.1327 113.253 53.906 112.547 53.4527 112.08C53.0127 111.613 52.3927 111.38 51.5927 111.38C51.006 111.38 50.486 111.5 50.0327 111.74C49.5793 111.98 49.226 112.34 48.9727 112.82C48.7327 113.287 48.6127 113.88 48.6127 114.6V120H46.1127V109.32H48.4927V112.2L48.0727 111.32C48.446 110.64 48.986 110.12 49.6927 109.76C50.4127 109.387 51.2393 109.2 52.1727 109.2ZM60.0441 120V106H65.8041C67.0441 106 68.1041 106.2 68.9841 106.6C69.8774 107 70.5641 107.573 71.0441 108.32C71.5241 109.067 71.7641 109.953 71.7641 110.98C71.7641 112.007 71.5241 112.893 71.0441 113.64C70.5641 114.387 69.8774 114.96 68.9841 115.36C68.1041 115.76 67.0441 115.96 65.8041 115.96H61.4841L62.6441 114.74V120H60.0441ZM62.6441 115.02L61.4841 113.76H65.6841C66.8307 113.76 67.6907 113.52 68.2641 113.04C68.8507 112.547 69.1441 111.86 69.1441 110.98C69.1441 110.087 68.8507 109.4 68.2641 108.92C67.6907 108.44 66.8307 108.2 65.6841 108.2H61.4841L62.6441 106.92V115.02ZM74.3158 120V105.16H76.8158V120H74.3158ZM84.617 120.14C83.7104 120.14 82.9104 119.973 82.217 119.64C81.5237 119.293 80.9837 118.773 80.597 118.08C80.2104 117.373 80.017 116.487 80.017 115.42V109.32H82.517V115.08C82.517 116.04 82.7304 116.76 83.157 117.24C83.597 117.707 84.217 117.94 85.017 117.94C85.6037 117.94 86.1104 117.82 86.537 117.58C86.977 117.34 87.317 116.98 87.557 116.5C87.8104 116.02 87.937 115.427 87.937 114.72V109.32H90.437V120H88.057V117.12L88.477 118C88.117 118.693 87.5904 119.227 86.897 119.6C86.2037 119.96 85.4437 120.14 84.617 120.14ZM97.0103 120.14C96.117 120.14 95.257 120.027 94.4303 119.8C93.617 119.56 92.9703 119.273 92.4903 118.94L93.4503 117.04C93.9303 117.347 94.5036 117.6 95.1703 117.8C95.837 118 96.5036 118.1 97.1703 118.1C97.957 118.1 98.5236 117.993 98.8703 117.78C99.2303 117.567 99.4103 117.28 99.4103 116.92C99.4103 116.627 99.2903 116.407 99.0503 116.26C98.8103 116.1 98.497 115.98 98.1103 115.9C97.7236 115.82 97.2903 115.747 96.8103 115.68C96.3436 115.613 95.8703 115.527 95.3903 115.42C94.9236 115.3 94.497 115.133 94.1103 114.92C93.7236 114.693 93.4103 114.393 93.1703 114.02C92.9303 113.647 92.8103 113.153 92.8103 112.54C92.8103 111.86 93.0036 111.273 93.3903 110.78C93.777 110.273 94.317 109.887 95.0103 109.62C95.717 109.34 96.5503 109.2 97.5103 109.2C98.2303 109.2 98.957 109.28 99.6903 109.44C100.424 109.6 101.03 109.827 101.51 110.12L100.55 112.02C100.044 111.713 99.5303 111.507 99.0103 111.4C98.5036 111.28 97.997 111.22 97.4903 111.22C96.7303 111.22 96.1636 111.333 95.7903 111.56C95.4303 111.787 95.2503 112.073 95.2503 112.42C95.2503 112.74 95.3703 112.98 95.6103 113.14C95.8503 113.3 96.1636 113.427 96.5503 113.52C96.937 113.613 97.3636 113.693 97.8303 113.76C98.3103 113.813 98.7836 113.9 99.2503 114.02C99.717 114.14 100.144 114.307 100.53 114.52C100.93 114.72 101.25 115.007 101.49 115.38C101.73 115.753 101.85 116.24 101.85 116.84C101.85 117.507 101.65 118.087 101.25 118.58C100.864 119.073 100.31 119.46 99.5903 119.74C98.8703 120.007 98.0103 120.14 97.0103 120.14ZM104.243 120V106H110.003C111.243 106 112.303 106.2 113.183 106.6C114.077 107 114.763 107.573 115.243 108.32C115.723 109.067 115.963 109.953 115.963 110.98C115.963 112.007 115.723 112.893 115.243 113.64C114.763 114.387 114.077 114.96 113.183 115.36C112.303 115.76 111.243 115.96 110.003 115.96H105.683L106.843 114.74V120H104.243ZM106.843 115.02L105.683 113.76H109.883C111.03 113.76 111.89 113.52 112.463 113.04C113.05 112.547 113.343 111.86 113.343 110.98C113.343 110.087 113.05 109.4 112.463 108.92C111.89 108.44 111.03 108.2 109.883 108.2H105.683L106.843 106.92V115.02ZM118.515 120V105.16H121.015V120H118.515ZM128.816 120.14C127.91 120.14 127.11 119.973 126.416 119.64C125.723 119.293 125.183 118.773 124.796 118.08C124.41 117.373 124.216 116.487 124.216 115.42V109.32H126.716V115.08C126.716 116.04 126.93 116.76 127.356 117.24C127.796 117.707 128.416 117.94 129.216 117.94C129.803 117.94 130.31 117.82 130.736 117.58C131.176 117.34 131.516 116.98 131.756 116.5C132.01 116.02 132.136 115.427 132.136 114.72V109.32H134.636V120H132.256V117.12L132.676 118C132.316 118.693 131.79 119.227 131.096 119.6C130.403 119.96 129.643 120.14 128.816 120.14ZM141.21 120.14C140.316 120.14 139.456 120.027 138.63 119.8C137.816 119.56 137.17 119.273 136.69 118.94L137.65 117.04C138.13 117.347 138.703 117.6 139.37 117.8C140.036 118 140.703 118.1 141.37 118.1C142.156 118.1 142.723 117.993 143.07 117.78C143.43 117.567 143.61 117.28 143.61 116.92C143.61 116.627 143.49 116.407 143.25 116.26C143.01 116.1 142.696 115.98 142.31 115.9C141.923 115.82 141.49 115.747 141.01 115.68C140.543 115.613 140.07 115.527 139.59 115.42C139.123 115.3 138.696 115.133 138.31 114.92C137.923 114.693 137.61 114.393 137.37 114.02C137.13 113.647 137.01 113.153 137.01 112.54C137.01 111.86 137.203 111.273 137.59 110.78C137.976 110.273 138.516 109.887 139.21 109.62C139.916 109.34 140.75 109.2 141.71 109.2C142.43 109.2 143.156 109.28 143.89 109.44C144.623 109.6 145.23 109.827 145.71 110.12L144.75 112.02C144.243 111.713 143.73 111.507 143.21 111.4C142.703 111.28 142.196 111.22 141.69 111.22C140.93 111.22 140.363 111.333 139.99 111.56C139.63 111.787 139.45 112.073 139.45 112.42C139.45 112.74 139.57 112.98 139.81 113.14C140.05 113.3 140.363 113.427 140.75 113.52C141.136 113.613 141.563 113.693 142.03 113.76C142.51 113.813 142.983 113.9 143.45 114.02C143.916 114.14 144.343 114.307 144.73 114.52C145.13 114.72 145.45 115.007 145.69 115.38C145.93 115.753 146.05 116.24 146.05 116.84C146.05 117.507 145.85 118.087 145.45 118.58C145.063 119.073 144.51 119.46 143.79 119.74C143.07 120.007 142.21 120.14 141.21 120.14Z" fill="#FB4B4B"/>
<defs>
<clipPath id="clip0_4_2">
<rect width="100" height="100" fill="white" transform="translate(23.5)"/>
</clipPath>
</defs>
</svg>
