<svg width="1825" height="1261" viewBox="0 0 1825 1261" fill="none" xmlns="http://www.w3.org/2000/svg">
<g clip-path="url(#clip0_3_90)">
<path d="M916.513 170.782C958.08 126.99 1029.77 114.469 1114.31 122.986C1192.74 130.867 1273.39 156.227 1329.64 179.743V810.434C1271.3 788.189 1195.73 766.452 1120.73 758.952C1051.19 751.897 975.94 756.473 916.513 790.223V170.782ZM884.734 113.325C822.129 59.4908 731.367 51.4824 648.741 59.745C552.514 69.4695 455.396 102.456 394.889 129.977C389.337 132.502 384.629 136.571 381.327 141.699C378.025 146.827 376.268 152.797 376.266 158.896V858.039C376.268 863.357 377.603 868.588 380.151 873.256C382.698 877.923 386.376 881.876 390.847 884.754C395.318 887.632 400.44 889.341 405.744 889.726C411.047 890.112 416.362 889.16 421.202 886.958C477.261 861.535 567.577 830.964 655.097 822.129C744.651 813.104 819.714 827.658 859.946 877.87C862.924 881.581 866.697 884.577 870.987 886.635C875.278 888.693 879.975 889.762 884.734 889.762C889.492 889.762 894.19 888.693 898.48 886.635C902.771 884.577 906.544 881.581 909.522 877.87C949.754 827.658 1024.82 813.104 1114.31 822.129C1201.89 830.964 1292.27 861.535 1348.27 886.958C1353.11 889.16 1358.42 890.112 1363.72 889.726C1369.03 889.341 1374.15 887.632 1378.62 884.754C1383.09 881.876 1386.77 877.923 1389.32 873.256C1391.86 868.588 1393.2 863.357 1393.2 858.039V158.896C1393.2 152.797 1391.44 146.827 1388.14 141.699C1384.84 136.571 1380.13 132.502 1374.58 129.977C1314.07 102.456 1216.95 69.4695 1120.73 59.745C1038.1 51.4188 947.339 59.4908 884.734 113.325Z" fill="#62BDFE"/>
<path d="M1002.3 368.401H1011.24C1012.03 368.401 1012.43 368.798 1012.43 369.592V474.464C1012.43 475.258 1012.03 475.656 1011.24 475.656H1002.3C1001.5 475.656 1001.11 475.258 1001.11 474.464V369.592C1001.11 368.798 1001.5 368.401 1002.3 368.401Z" fill="#FCAE2F"/>
<path d="M956.714 416.367H1056.82C1057.61 416.367 1058.01 416.765 1058.01 417.559V426.497C1058.01 427.292 1057.61 427.689 1056.82 427.689H956.714C955.919 427.689 955.522 427.292 955.522 426.497V417.559C955.522 416.765 955.919 416.367 956.714 416.367Z" fill="#FCAE2F"/>
<path d="M1165.62 218.164H1183.5C1185.09 218.164 1185.88 218.959 1185.88 220.548V430.291C1185.88 431.88 1185.09 432.674 1183.5 432.674H1165.62C1164.03 432.674 1163.24 431.88 1163.24 430.291V220.548C1163.24 218.959 1164.03 218.164 1165.62 218.164Z" fill="#FB4B4B"/>
<path d="M1074.46 314.098H1274.67C1276.25 314.098 1277.05 314.893 1277.05 316.481V334.357C1277.05 335.946 1276.25 336.741 1274.67 336.741H1074.46C1072.87 336.741 1072.07 335.946 1072.07 334.357V316.481C1072.07 314.893 1072.87 314.098 1074.46 314.098Z" fill="#FB4B4B"/>
<path d="M1190.4 465.903H1201.7C1202.7 465.903 1203.21 466.405 1203.21 467.409V599.968C1203.21 600.972 1202.7 601.474 1201.7 601.474H1190.4C1189.4 601.474 1188.9 600.972 1188.9 599.968V467.409C1188.9 466.405 1189.4 465.903 1190.4 465.903Z" fill="#25FFAE"/>
<path d="M1132.78 526.533H1259.32C1260.32 526.533 1260.82 527.035 1260.82 528.04V539.337C1260.82 540.341 1260.32 540.843 1259.32 540.843H1132.78C1131.78 540.843 1131.28 540.341 1131.28 539.337V528.04C1131.28 527.035 1131.78 526.533 1132.78 526.533Z" fill="#25FFAE"/>
</g>
<path d="M19.1184 1213.94V1071.56H45.5587V1191.56H119.998V1213.94H19.1184ZM188.489 1215.36C176.421 1215.36 165.845 1212.99 156.761 1208.24C147.812 1203.36 140.829 1196.72 135.812 1188.31C130.93 1179.9 128.49 1170.34 128.49 1159.63C128.49 1148.78 130.863 1139.22 135.608 1130.95C140.49 1122.55 147.134 1115.97 155.54 1111.23C164.083 1106.48 173.777 1104.11 184.625 1104.11C195.201 1104.11 204.624 1106.41 212.895 1111.02C221.167 1115.63 227.675 1122.14 232.421 1130.55C237.166 1138.95 239.539 1148.85 239.539 1160.24C239.539 1161.33 239.471 1162.55 239.336 1163.9C239.336 1165.26 239.268 1166.55 239.132 1167.77H148.625V1150.89H225.709L215.743 1156.17C215.878 1149.94 214.59 1144.44 211.878 1139.7C209.167 1134.95 205.438 1131.22 200.692 1128.51C196.082 1125.8 190.726 1124.45 184.625 1124.45C178.387 1124.45 172.896 1125.8 168.15 1128.51C163.54 1131.22 159.879 1135.02 157.167 1139.9C154.591 1144.65 153.303 1150.28 153.303 1156.78V1160.85C153.303 1167.36 154.795 1173.12 157.778 1178.14C160.761 1183.16 164.964 1187.02 170.388 1189.73C175.811 1192.44 182.048 1193.8 189.099 1193.8C195.201 1193.8 200.692 1192.85 205.573 1190.95C210.455 1189.05 214.794 1186.07 218.59 1182L232.217 1197.66C227.336 1203.36 221.167 1207.77 213.709 1210.88C206.387 1213.87 197.98 1215.36 188.489 1215.36ZM327.895 1213.94V1191.97L326.471 1187.29V1148.85C326.471 1141.39 324.234 1135.63 319.759 1131.56C315.285 1127.36 308.505 1125.26 299.421 1125.26C293.319 1125.26 287.285 1126.21 281.319 1128.11C275.489 1130 270.54 1132.65 266.472 1136.04L256.506 1117.53C262.336 1113.06 269.252 1109.73 277.252 1107.56C285.387 1105.26 293.794 1104.11 302.472 1104.11C318.2 1104.11 330.336 1107.9 338.878 1115.5C347.556 1122.95 351.895 1134.55 351.895 1150.28V1213.94H327.895ZM293.726 1215.36C285.59 1215.36 278.472 1214 272.37 1211.29C266.269 1208.44 261.523 1204.58 258.133 1199.7C254.879 1194.68 253.252 1189.05 253.252 1182.82C253.252 1176.72 254.676 1171.22 257.523 1166.34C260.506 1161.46 265.32 1157.6 271.963 1154.75C278.607 1151.9 287.421 1150.48 298.404 1150.48H329.929V1167.36H300.234C291.556 1167.36 285.726 1168.78 282.743 1171.63C279.76 1174.34 278.268 1177.73 278.268 1181.8C278.268 1186.41 280.099 1190.07 283.76 1192.78C287.421 1195.5 292.506 1196.85 299.014 1196.85C305.251 1196.85 310.81 1195.43 315.692 1192.58C320.709 1189.73 324.302 1185.53 326.471 1179.97L330.742 1195.22C328.302 1201.6 323.895 1206.55 317.522 1210.07C311.285 1213.6 303.353 1215.36 293.726 1215.36ZM384.522 1213.94V1105.33H408.725V1135.22L405.878 1126.48C409.132 1119.16 414.217 1113.6 421.132 1109.8C428.183 1106 436.928 1104.11 447.369 1104.11V1128.31C446.284 1128.04 445.267 1127.9 444.318 1127.9C443.369 1127.77 442.42 1127.7 441.471 1127.7C431.844 1127.7 424.183 1130.55 418.488 1136.24C412.793 1141.8 409.946 1150.14 409.946 1161.26V1213.94H384.522ZM530.562 1104.11C539.24 1104.11 546.969 1105.8 553.748 1109.19C560.663 1112.58 566.087 1117.8 570.019 1124.85C573.951 1131.77 575.918 1140.72 575.918 1151.7V1213.94H550.494V1154.95C550.494 1145.33 548.189 1138.14 543.579 1133.39C539.104 1128.65 532.799 1126.28 524.664 1126.28C518.698 1126.28 513.41 1127.5 508.8 1129.94C504.19 1132.38 500.597 1136.04 498.02 1140.92C495.58 1145.67 494.359 1151.7 494.359 1159.02V1213.94H468.936V1105.33H493.139V1134.61L488.868 1125.67C492.664 1118.75 498.156 1113.46 505.342 1109.8C512.664 1106 521.071 1104.11 530.562 1104.11ZM608.169 1213.94V1105.33H633.592V1213.94H608.169ZM620.982 1087.43C616.236 1087.43 612.304 1085.94 609.186 1082.95C606.203 1079.97 604.711 1076.38 604.711 1072.17C604.711 1067.84 606.203 1064.24 609.186 1061.4C612.304 1058.41 616.236 1056.92 620.982 1056.92C625.728 1056.92 629.592 1058.34 632.575 1061.19C635.694 1063.9 637.253 1067.36 637.253 1071.56C637.253 1076.04 635.762 1079.84 632.779 1082.95C629.796 1085.94 625.863 1087.43 620.982 1087.43ZM728.587 1104.11C737.264 1104.11 744.993 1105.8 751.773 1109.19C758.688 1112.58 764.112 1117.8 768.044 1124.85C771.976 1131.77 773.942 1140.72 773.942 1151.7V1213.94H748.518V1154.95C748.518 1145.33 746.213 1138.14 741.603 1133.39C737.129 1128.65 730.824 1126.28 722.688 1126.28C716.722 1126.28 711.434 1127.5 706.824 1129.94C702.214 1132.38 698.621 1136.04 696.045 1140.92C693.604 1145.67 692.384 1151.7 692.384 1159.02V1213.94H666.96V1105.33H691.163V1134.61L686.892 1125.67C690.689 1118.75 696.18 1113.46 703.367 1109.8C710.689 1106 719.095 1104.11 728.587 1104.11ZM855.611 1254.82C845.578 1254.82 835.747 1253.46 826.12 1250.75C816.629 1248.17 808.832 1244.38 802.731 1239.36L814.12 1220.24C818.866 1224.17 824.832 1227.29 832.018 1229.6C839.34 1232.04 846.73 1233.26 854.188 1233.26C866.12 1233.26 874.865 1230.48 880.425 1224.92C885.984 1219.49 888.763 1211.29 888.763 1200.31V1180.99L890.797 1156.38L889.984 1131.77V1105.33H914.187V1197.46C914.187 1217.12 909.17 1231.56 899.136 1240.78C889.102 1250.14 874.594 1254.82 855.611 1254.82ZM852.357 1209.05C842.052 1209.05 832.696 1206.88 824.29 1202.55C816.019 1198.07 809.442 1191.9 804.561 1184.04C799.815 1176.17 797.443 1166.95 797.443 1156.38C797.443 1145.94 799.815 1136.78 804.561 1128.92C809.442 1121.06 816.019 1114.95 824.29 1110.61C832.696 1106.28 842.052 1104.11 852.357 1104.11C861.577 1104.11 869.848 1105.94 877.17 1109.6C884.492 1113.26 890.323 1118.95 894.662 1126.68C899.136 1134.41 901.373 1144.31 901.373 1156.38C901.373 1168.44 899.136 1178.41 894.662 1186.27C890.323 1194 884.492 1199.77 877.17 1203.56C869.848 1207.22 861.577 1209.05 852.357 1209.05ZM856.222 1187.5C862.594 1187.5 868.289 1186.21 873.306 1183.63C878.323 1180.92 882.187 1177.26 884.899 1172.65C887.747 1167.9 889.17 1162.48 889.17 1156.38C889.17 1150.28 887.747 1144.92 884.899 1140.31C882.187 1135.56 878.323 1131.97 873.306 1129.53C868.289 1126.95 862.594 1125.67 856.222 1125.67C849.849 1125.67 844.086 1126.95 838.934 1129.53C833.917 1131.97 829.985 1135.56 827.137 1140.31C824.425 1144.92 823.069 1150.28 823.069 1156.38C823.069 1162.48 824.425 1167.9 827.137 1172.65C829.985 1177.26 833.917 1180.92 838.934 1183.63C844.086 1186.21 849.849 1187.5 856.222 1187.5ZM950.051 1213.94V1071.56H1008.63C1021.24 1071.56 1032.02 1073.6 1040.97 1077.67C1050.05 1081.73 1057.03 1087.56 1061.91 1095.16C1066.8 1102.75 1069.24 1111.77 1069.24 1122.21C1069.24 1132.65 1066.8 1141.67 1061.91 1149.26C1057.03 1156.85 1050.05 1162.68 1040.97 1166.75C1032.02 1170.82 1021.24 1172.85 1008.63 1172.85H964.695L976.492 1160.44V1213.94H950.051ZM976.492 1163.29L964.695 1150.48H1007.41C1019.07 1150.48 1027.81 1148.04 1033.64 1143.16C1039.61 1138.14 1042.59 1131.16 1042.59 1122.21C1042.59 1113.12 1039.61 1106.14 1033.64 1101.26C1027.81 1096.38 1019.07 1093.94 1007.41 1093.94H964.695L976.492 1080.92V1163.29ZM1095.19 1213.94V1063.02H1120.61V1213.94H1095.19ZM1199.94 1215.36C1190.72 1215.36 1182.59 1213.66 1175.54 1210.27C1168.49 1206.75 1162.99 1201.46 1159.06 1194.41C1155.13 1187.22 1153.16 1178.21 1153.16 1167.36V1105.33H1178.59V1163.9C1178.59 1173.66 1180.76 1180.99 1185.1 1185.87C1189.57 1190.61 1195.87 1192.99 1204.01 1192.99C1209.98 1192.99 1215.13 1191.77 1219.47 1189.33C1223.94 1186.89 1227.4 1183.22 1229.84 1178.34C1232.42 1173.46 1233.7 1167.43 1233.7 1160.24V1105.33H1259.13V1213.94H1234.93V1184.65L1239.2 1193.6C1235.54 1200.65 1230.18 1206.07 1223.13 1209.87C1216.08 1213.53 1208.35 1215.36 1199.94 1215.36ZM1325.97 1215.36C1316.89 1215.36 1308.14 1214.21 1299.74 1211.9C1291.47 1209.46 1284.89 1206.55 1280.01 1203.16L1289.77 1183.83C1294.65 1186.95 1300.48 1189.53 1307.26 1191.56C1314.04 1193.6 1320.82 1194.61 1327.6 1194.61C1335.6 1194.61 1341.36 1193.53 1344.89 1191.36C1348.55 1189.19 1350.38 1186.27 1350.38 1182.61C1350.38 1179.63 1349.16 1177.39 1346.72 1175.9C1344.28 1174.28 1341.09 1173.05 1337.16 1172.24C1333.23 1171.43 1328.82 1170.68 1323.94 1170C1319.19 1169.33 1314.38 1168.44 1309.5 1167.36C1304.75 1166.14 1300.42 1164.44 1296.48 1162.28C1292.55 1159.97 1289.36 1156.92 1286.92 1153.12C1284.48 1149.33 1283.26 1144.31 1283.26 1138.07C1283.26 1131.16 1285.23 1125.19 1289.16 1120.17C1293.09 1115.02 1298.58 1111.09 1305.64 1108.38C1312.82 1105.53 1321.3 1104.11 1331.06 1104.11C1338.38 1104.11 1345.77 1104.92 1353.23 1106.55C1360.69 1108.17 1366.85 1110.48 1371.74 1113.46L1361.97 1132.78C1356.82 1129.67 1351.6 1127.56 1346.31 1126.48C1341.16 1125.26 1336.01 1124.65 1330.86 1124.65C1323.13 1124.65 1317.36 1125.8 1313.57 1128.11C1309.91 1130.41 1308.08 1133.33 1308.08 1136.85C1308.08 1140.11 1309.3 1142.55 1311.74 1144.17C1314.18 1145.8 1317.36 1147.09 1321.3 1148.04C1325.23 1148.99 1329.57 1149.8 1334.31 1150.48C1339.19 1151.02 1344.01 1151.9 1348.75 1153.12C1353.5 1154.34 1357.84 1156.04 1361.77 1158.21C1365.84 1160.24 1369.09 1163.16 1371.53 1166.95C1373.97 1170.75 1375.19 1175.7 1375.19 1181.8C1375.19 1188.58 1373.16 1194.48 1369.09 1199.5C1365.16 1204.51 1359.53 1208.44 1352.21 1211.29C1344.89 1214 1336.14 1215.36 1325.97 1215.36ZM1399.53 1213.94V1071.56H1458.1C1470.71 1071.56 1481.49 1073.6 1490.44 1077.67C1499.53 1081.73 1506.51 1087.56 1511.39 1095.16C1516.27 1102.75 1518.71 1111.77 1518.71 1122.21C1518.71 1132.65 1516.27 1141.67 1511.39 1149.26C1506.51 1156.85 1499.53 1162.68 1490.44 1166.75C1481.49 1170.82 1470.71 1172.85 1458.1 1172.85H1414.17L1425.97 1160.44V1213.94H1399.53ZM1425.97 1163.29L1414.17 1150.48H1456.88C1468.54 1150.48 1477.29 1148.04 1483.12 1143.16C1489.09 1138.14 1492.07 1131.16 1492.07 1122.21C1492.07 1113.12 1489.09 1106.14 1483.12 1101.26C1477.29 1096.38 1468.54 1093.94 1456.88 1093.94H1414.17L1425.97 1080.92V1163.29ZM1544.66 1213.94V1063.02H1570.09V1213.94H1544.66ZM1649.42 1215.36C1640.2 1215.36 1632.06 1213.66 1625.01 1210.27C1617.96 1206.75 1612.47 1201.46 1608.54 1194.41C1604.61 1187.22 1602.64 1178.21 1602.64 1167.36V1105.33H1628.06V1163.9C1628.06 1173.66 1630.23 1180.99 1634.57 1185.87C1639.05 1190.61 1645.35 1192.99 1653.49 1192.99C1659.45 1192.99 1664.61 1191.77 1668.95 1189.33C1673.42 1186.89 1676.88 1183.22 1679.32 1178.34C1681.89 1173.46 1683.18 1167.43 1683.18 1160.24V1105.33H1708.61V1213.94H1684.4V1184.65L1688.67 1193.6C1685.01 1200.65 1679.66 1206.07 1672.61 1209.87C1665.56 1213.53 1657.83 1215.36 1649.42 1215.36ZM1775.45 1215.36C1766.37 1215.36 1757.62 1214.21 1749.21 1211.9C1740.94 1209.46 1734.37 1206.55 1729.49 1203.16L1739.25 1183.83C1744.13 1186.95 1749.96 1189.53 1756.74 1191.56C1763.52 1193.6 1770.3 1194.61 1777.08 1194.61C1785.08 1194.61 1790.84 1193.53 1794.37 1191.36C1798.03 1189.19 1799.86 1186.27 1799.86 1182.61C1799.86 1179.63 1798.64 1177.39 1796.2 1175.9C1793.76 1174.28 1790.57 1173.05 1786.64 1172.24C1782.71 1171.43 1778.3 1170.68 1773.42 1170C1768.67 1169.33 1763.86 1168.44 1758.98 1167.36C1754.23 1166.14 1749.89 1164.44 1745.96 1162.28C1742.03 1159.97 1738.84 1156.92 1736.4 1153.12C1733.96 1149.33 1732.74 1144.31 1732.74 1138.07C1732.74 1131.16 1734.71 1125.19 1738.64 1120.17C1742.57 1115.02 1748.06 1111.09 1755.11 1108.38C1762.3 1105.53 1770.77 1104.11 1780.54 1104.11C1787.86 1104.11 1795.25 1104.92 1802.71 1106.55C1810.16 1108.17 1816.33 1110.48 1821.21 1113.46L1811.45 1132.78C1806.3 1129.67 1801.08 1127.56 1795.79 1126.48C1790.64 1125.26 1785.49 1124.65 1780.33 1124.65C1772.6 1124.65 1766.84 1125.8 1763.05 1128.11C1759.38 1130.41 1757.55 1133.33 1757.55 1136.85C1757.55 1140.11 1758.77 1142.55 1761.21 1144.17C1763.66 1145.8 1766.84 1147.09 1770.77 1148.04C1774.71 1148.99 1779.04 1149.8 1783.79 1150.48C1788.67 1151.02 1793.49 1151.9 1798.23 1153.12C1802.98 1154.34 1807.32 1156.04 1811.25 1158.21C1815.32 1160.24 1818.57 1163.16 1821.01 1166.95C1823.45 1170.75 1824.67 1175.7 1824.67 1181.8C1824.67 1188.58 1822.64 1194.48 1818.57 1199.5C1814.64 1204.51 1809.01 1208.44 1801.69 1211.29C1794.37 1214 1785.62 1215.36 1775.45 1215.36Z" fill="#FB4B4B"/>
<defs>
<clipPath id="clip0_3_90">
<rect width="1016.94" height="1016.94" fill="white" transform="translate(376.266)"/>
</clipPath>
</defs>
</svg>
