<svg width="22" height="14" viewBox="0 0 22 14" fill="none" xmlns="http://www.w3.org/2000/svg">
<path fill-rule="evenodd" clip-rule="evenodd" d="M10.8828 8.43194C9.8512 8.43194 7.31762 8.43521 7.31762 8.43521V5.92266H13.6509C14.092 8.96284 12.7614 13.5231 7.31762 13.5231C3.67557 13.5231 0.723145 10.6827 0.723145 7.17893C0.723145 3.67512 3.67557 0.834747 7.31762 0.834747C9.02656 0.834747 10.5836 1.46012 11.7552 2.48599C10.8473 3.31078 10.5563 3.62519 10.309 3.89234C10.1804 4.0313 10.0636 4.15748 9.87797 4.33605C9.2003 3.79692 8.46153 3.41011 7.31762 3.41011C5.15404 3.41011 3.4654 5.09748 3.4654 7.17893C3.4654 9.26039 5.15404 10.9478 7.31762 10.9478C9.45553 10.9478 10.3242 10.0608 10.8828 8.43194ZM19.2007 3.84989V6.04837H21.4859V7.61871H19.2007V9.88H17.5684V7.61871H15.2179V6.04837H17.5684V3.84989H19.2007Z" fill="#0081FE" fill-opacity="0.7"/>
</svg>
