<svg width="22" height="21" viewBox="0 0 22 21" fill="none" xmlns="http://www.w3.org/2000/svg">
<path fill-rule="evenodd" clip-rule="evenodd" d="M21.2208 20.9836H17.2662C17.2662 11.7153 9.72645 4.1754 0.458191 4.1754V0.220825C11.9065 0.220825 21.2208 9.53516 21.2208 20.9836ZM0.458219 18.0175C0.458219 16.3795 1.78628 15.0514 3.4243 15.0514C5.06232 15.0514 6.39038 16.3795 6.39038 18.0175C6.39038 19.6556 5.06232 20.9836 3.4243 20.9836C1.78628 20.9836 0.458219 19.6556 0.458219 18.0175ZM10.3454 20.9836H14.3C14.3 13.351 8.09048 7.14146 0.458008 7.14146V11.0968C5.90966 11.0968 10.3454 15.5318 10.3454 20.9836Z" fill="#0081FE" fill-opacity="0.7"/>
</svg>
