<svg width="18" height="17" viewBox="0 0 18 17" fill="none" xmlns="http://www.w3.org/2000/svg">
<path d="M16.65 0.555664H10.7C10.0706 0.557796 9.46462 0.794144 9 1.21866C8.53538 0.794144 7.92935 0.557796 7.3 0.555664H1.35C1.12457 0.555664 0.908365 0.645217 0.748959 0.804623C0.589553 0.964029 0.5 1.18023 0.5 1.40566V14.1557C0.5 14.3811 0.589553 14.5973 0.748959 14.7567C0.908365 14.9161 1.12457 15.0057 1.35 15.0057H6.2443C6.6914 15.0057 7.13 15.1876 7.4462 15.5038L8.39905 16.4566C8.4067 16.4643 8.4169 16.4668 8.42455 16.4745C8.49765 16.5416 8.57925 16.6011 8.67445 16.6411H8.67615C8.88352 16.7269 9.11648 16.7269 9.32385 16.6411H9.32555C9.42075 16.6011 9.50235 16.5416 9.57545 16.4745C9.5831 16.4668 9.5933 16.4643 9.60095 16.4566L10.5538 15.5038C10.8733 15.1861 11.3051 15.0071 11.7557 15.0057H16.65C16.8754 15.0057 17.0916 14.9161 17.251 14.7567C17.4104 14.5973 17.5 14.3811 17.5 14.1557V1.40566C17.5 1.18023 17.4104 0.964029 17.251 0.804623C17.0916 0.645217 16.8754 0.555664 16.65 0.555664ZM6.2443 13.3057H2.2V2.25566H7.3C7.7692 2.25566 8.15 2.63731 8.15 3.10566V13.8913C7.58684 13.5116 6.92353 13.3077 6.2443 13.3057ZM15.8 13.3057H11.7557C11.0765 13.3057 10.4093 13.5148 9.85 13.8913V3.10566C9.85 2.63731 10.2308 2.25566 10.7 2.25566H15.8V13.3057Z" fill="#5375E2" fill-opacity="0.5"/>
</svg>
