<svg width="22" height="22" viewBox="0 0 22 22" fill="none" xmlns="http://www.w3.org/2000/svg">
<path fill-rule="evenodd" clip-rule="evenodd" d="M19.2583 14.5393L16.3284 14.2048C15.6248 14.1241 14.9327 14.3663 14.4367 14.8623L12.3143 16.9847C9.04988 15.3237 6.37379 12.6591 4.71277 9.38323L6.84672 7.24927C7.34272 6.75327 7.58495 6.06118 7.50421 5.35755L7.1697 2.45076C7.03128 1.28574 6.05081 0.409088 4.87425 0.409088H2.87872C1.57528 0.409088 0.490998 1.49337 0.571742 2.79681C1.18309 12.6476 9.06142 20.5144 18.9007 21.1257C20.2041 21.2065 21.2884 20.1222 21.2884 18.8188V16.8232C21.2999 15.6582 20.4233 14.6777 19.2583 14.5393Z" fill="#0081FE" fill-opacity="0.7"/>
</svg>
