<svg width="372" height="303" viewBox="0 0 372 303" fill="none" xmlns="http://www.w3.org/2000/svg">
<g clip-path="url(#clip0_229_1931)">
<g opacity="0.4">
<path d="M361.421 220.955C369.235 182.6 366.413 147.152 346.392 113.408C332.128 89.3662 307.351 69.2842 279.009 68.7545C252.276 68.255 228.213 84.694 201.802 88.8504C158.354 95.6883 113.448 68.8081 71.2518 81.0953C48.6704 87.6718 30.3085 105.17 19.9373 125.957C9.56608 146.744 6.63022 170.536 8.26151 193.606C11.1624 234.607 29.557 275.38 60.981 301.908H316.942C338.443 277.287 356.366 245.765 361.421 220.955Z" fill="#FADDD3"/>
</g>
<path d="M129.295 257.354H150.123C150.998 257.354 151.708 258.064 151.708 258.939V264.54C151.708 265.415 150.998 266.125 150.123 266.125H129.295C128.419 266.125 127.71 265.415 127.71 264.54V258.939C127.71 258.064 128.419 257.354 129.295 257.354Z" fill="#E0E0FF"/>
<path d="M156.522 257.354H177.351C178.226 257.354 178.936 258.064 178.936 258.939V264.54C178.936 265.415 178.226 266.125 177.351 266.125H156.522C155.647 266.125 154.938 265.415 154.938 264.54V258.939C154.938 258.064 155.647 257.354 156.522 257.354Z" fill="#E0E0FF"/>
<path d="M142.714 245.296H163.542C164.418 245.296 165.127 246.005 165.127 246.88V252.481C165.127 253.357 164.418 254.066 163.542 254.066H142.714C141.839 254.066 141.129 253.357 141.129 252.481V246.88C141.129 246.005 141.839 245.296 142.714 245.296Z" fill="#E0E0FF"/>
<path d="M279.479 48.4998C279.479 45.487 277.035 43.0435 274.022 43.0435H92.4003C89.3874 43.0435 86.944 45.487 86.944 48.4998V52.9736H279.479V48.4998Z" fill="white"/>
<path d="M279.766 53.2607H86.6546V48.4975C86.6546 45.3306 89.2311 42.7518 92.4003 42.7518H274.022C277.189 42.7518 279.768 45.3283 279.768 48.4975V53.2607H279.766ZM87.231 52.6843H279.189V48.4999C279.189 45.6504 276.872 43.3329 274.022 43.3329H92.4003C89.5508 43.3329 87.2334 45.6504 87.2334 48.4999V52.6843H87.231Z" fill="#5375E2"/>
<path d="M86.9439 52.9736V168.84C86.9439 171.853 89.3874 174.296 92.4003 174.296H274.022C277.035 174.296 279.479 171.853 279.479 168.84V52.9736H86.9439Z" fill="white"/>
<path d="M274.022 174.583H92.4003C89.2334 174.583 86.6546 172.007 86.6546 168.837V52.6843H279.766V168.837C279.766 172.004 277.189 174.583 274.02 174.583H274.022ZM87.231 53.2607V168.837C87.231 171.687 89.5484 174.004 92.3979 174.004H274.02C276.869 174.004 279.187 171.687 279.187 168.837V53.2607H87.231Z" fill="#5375E2"/>
<path d="M96.4514 49.9486C97.5207 49.8523 98.3094 48.9073 98.213 47.838C98.1167 46.7686 97.1717 45.9799 96.1024 46.0763C95.033 46.1727 94.2443 47.1176 94.3407 48.187C94.4371 49.2563 95.3821 50.045 96.4514 49.9486Z" fill="white"/>
<path d="M96.279 50.2455C95.0467 50.2455 94.0432 49.242 94.0432 48.0098C94.0432 46.7775 95.0467 45.774 96.279 45.774C97.5112 45.774 98.5147 46.7775 98.5147 48.0098C98.5147 49.242 97.5112 50.2455 96.279 50.2455ZM96.279 46.3551C95.3665 46.3551 94.6267 47.0973 94.6267 48.0074C94.6267 48.9176 95.3688 49.6597 96.279 49.6597C97.1891 49.6597 97.9313 48.9176 97.9313 48.0074C97.9313 47.0973 97.1891 46.3551 96.279 46.3551Z" fill="#5375E2"/>
<path d="M104.036 49.9493C105.105 49.8529 105.894 48.9079 105.797 47.8386C105.701 46.7693 104.756 45.9806 103.687 46.0769C102.617 46.1733 101.829 47.1183 101.925 48.1876C102.021 49.2569 102.966 50.0456 104.036 49.9493Z" fill="white"/>
<path d="M103.864 50.2455C102.631 50.2455 101.628 49.242 101.628 48.0098C101.628 46.7775 102.631 45.774 103.864 45.774C105.096 45.774 106.099 46.7775 106.099 48.0098C106.099 49.242 105.096 50.2455 103.864 50.2455ZM103.864 46.3551C102.951 46.3551 102.211 47.0973 102.211 48.0074C102.211 48.9176 102.953 49.6597 103.864 49.6597C104.774 49.6597 105.516 48.9176 105.516 48.0074C105.516 47.0973 104.774 46.3551 103.864 46.3551Z" fill="#5375E2"/>
<path d="M111.62 49.9476C112.689 49.8512 113.478 48.9062 113.382 47.8369C113.285 46.7676 112.34 45.9788 111.271 46.0752C110.202 46.1716 109.413 47.1166 109.51 48.1859C109.606 49.2552 110.551 50.0439 111.62 49.9476Z" fill="white"/>
<path d="M111.448 50.2455C110.216 50.2455 109.213 49.242 109.213 48.0098C109.213 46.7775 110.216 45.774 111.448 45.774C112.681 45.774 113.684 46.7775 113.684 48.0098C113.684 49.242 112.681 50.2455 111.448 50.2455ZM111.448 46.3551C110.536 46.3551 109.796 47.0973 109.796 48.0074C109.796 48.9176 110.538 49.6597 111.448 49.6597C112.358 49.6597 113.101 48.9176 113.101 48.0074C113.101 47.0973 112.358 46.3551 111.448 46.3551Z" fill="#5375E2"/>
<path opacity="0.4" d="M259.411 65.6063H107.01V157.094H259.411V65.6063Z" fill="#E0E0FF"/>
<path d="M210.913 173.962H161.157C159.318 156.781 158.847 141.379 160.492 131.138C160.94 128.349 161.542 125.945 162.317 123.992L183.267 119.726L207.625 121.908C211.72 132.503 212.362 151.554 210.908 173.962H210.913Z" fill="#FFB147"/>
<path d="M185.106 124.494H184.523V144.331H185.106V124.494Z" fill="#1B1B43"/>
<path opacity="0.2" d="M207.627 121.908C207.627 121.908 188.012 135.665 160.492 131.138C160.94 128.349 161.542 125.945 162.317 123.992L183.267 119.726L207.625 121.908H207.627Z" fill="#1B1B43"/>
<path d="M173.393 44.1544C173.393 44.1544 163.944 56.2035 166.219 66.4417L199.412 65.0555C199.412 65.0555 199.697 45.0062 192.446 43.3002L173.393 44.1544Z" fill="#1B1B43"/>
<path d="M201.977 63.8629H201.394C201.394 50.7286 194.563 44.6958 194.493 44.6351L194.873 44.1941C194.943 44.2547 201.975 50.4649 201.975 63.8629H201.977Z" fill="#1B1B43"/>
<path d="M165.311 112.608C165.272 113.98 165.001 115.299 164.541 116.533C163.339 119.789 160.819 122.431 157.568 123.728C156.786 124.05 155.958 124.284 155.094 124.428C153.531 124.697 151.71 124.849 149.57 124.849C138.835 124.849 131.04 116.694 130.118 114.209C129.197 111.717 131.796 112.603 131.796 112.603C132.744 110.489 134.856 112.193 134.856 112.193C135.493 109.987 137.488 112.048 137.488 112.048C137.488 112.048 137.558 110.839 138.695 110.909C139.395 110.956 141.687 112.351 143.344 113.413C144.196 113.957 145.176 114.237 146.168 114.237C146.564 114.237 146.961 114.195 147.351 114.104C149.388 113.637 150.952 111.997 151.33 109.943L154.543 92.428H162.151L164.59 95.5553C165.547 99.413 165.489 107.313 165.307 112.61L165.311 112.608Z" fill="#FFBC96"/>
<path opacity="0.4" d="M164.541 116.536C163.339 119.791 160.819 122.433 157.568 123.731C157.3 123.082 157.148 122.37 157.148 121.623C157.148 118.62 159.587 116.181 162.597 116.181C163.281 116.181 163.934 116.309 164.541 116.536Z" fill="#FE5B52"/>
<path d="M181.753 58.8734L166.107 62.0613C160.355 63.2328 155.848 67.709 154.632 73.4523L150.378 93.5669L164.597 95.5576L181.755 58.8734H181.753Z" fill="#0081FE"/>
<path d="M187.202 58.8734L202.847 62.0613C208.6 63.2328 213.107 67.709 214.323 73.4523L216.255 87.7372L202.462 90.155L187.202 58.8734Z" fill="#0081FE"/>
<path d="M164.595 95.5553C164.595 95.5553 163.836 118.494 162.32 123.992C162.32 123.992 183.552 131.385 207.629 121.906L205.734 79.6298L187.202 58.871H181.753L163.269 82.8527L164.597 95.5553H164.595Z" fill="#0081FE"/>
<path d="M234.453 59.4404C234.54 60.9411 232.073 65.4779 230.178 68.7288C228.782 71.1139 227.891 73.7697 227.564 76.5165C225.121 97.0535 223.504 114.237 216.358 119.049C214.701 120.162 212.752 120.617 210.43 120.298C208.792 120.071 207.443 119.411 206.341 118.424C198.815 111.726 202.467 90.1503 202.467 90.1503L211.802 88.54C211.802 88.54 213.891 70.9085 215.214 64.8408C216.544 58.78 218.628 62.0006 218.628 62.0006C219.387 60.1056 221.468 61.2421 221.468 61.2421C222.985 58.78 224.88 60.6703 224.88 60.6703C226.017 58.3996 229.245 62.3786 229.245 62.3786C231.326 61.4288 234.267 56.2876 234.453 59.4381V59.4404Z" fill="#FFBC96"/>
<path d="M165.213 76.2911L164.296 95.5367L164.878 95.5645L165.796 76.3189L165.213 76.2911Z" fill="#1B1B43"/>
<path d="M202.199 90.4957L201.006 75.1653L201.587 75.1209L202.731 89.8119L211.751 88.2553L211.851 88.8294L202.199 90.4957Z" fill="#1B1B43"/>
<path d="M213.733 72.1837L209.46 104.467L210.038 104.544L214.311 72.2603L213.733 72.1837Z" fill="#D28572"/>
<path opacity="0.4" d="M216.355 119.049C214.698 120.162 212.75 120.617 210.427 120.298C208.789 120.071 207.44 119.411 206.339 118.424C207.23 116.631 209.081 115.401 211.216 115.401C213.59 115.401 215.615 116.923 216.355 119.047V119.049Z" fill="#FE5B52"/>
<path d="M218.915 61.9396L218.338 62.0288L218.878 65.5206L219.455 65.4314L218.915 61.9396Z" fill="#D28572"/>
<path d="M221.817 61.1626L221.262 61.3447L222.386 64.7635L222.94 64.5814L221.817 61.1626Z" fill="#D28572"/>
<path d="M225.175 60.3177L224.625 60.5133L225.893 64.0773L226.443 63.8817L225.175 60.3177Z" fill="#D28572"/>
<path d="M196.57 73.9517H190.493C190.298 73.9517 190.14 74.1095 190.14 74.3041V75.7137C190.14 75.9083 190.298 76.0661 190.493 76.0661H196.57C196.764 76.0661 196.922 75.9083 196.922 75.7137V74.3041C196.922 74.1095 196.764 73.9517 196.57 73.9517Z" fill="#CBCBFF"/>
<path d="M184 69.4779C179.995 69.4779 177.221 67.0345 177.181 66.9971L177.571 66.5631C177.811 66.7778 183.51 71.779 190.425 66.5467L190.777 67.0111C188.336 68.8595 186.012 69.4756 184.002 69.4756L184 69.4779Z" fill="#1B1B43"/>
<path d="M141.024 115.138C139.782 114.655 138.431 113.618 137.12 112.144L137.556 111.756C138.807 113.163 140.079 114.146 141.236 114.596L141.024 115.14V115.138Z" fill="#D28572"/>
<path d="M137.691 115.987C136.499 115.233 135.439 114.006 134.457 112.237L134.968 111.955C135.904 113.637 136.896 114.797 138.004 115.497L137.691 115.99V115.987Z" fill="#D28572"/>
<path d="M135.341 117.07C133.918 116.011 132.604 114.529 131.332 112.545L131.822 112.23C133.057 114.155 134.321 115.586 135.689 116.601L135.341 117.07Z" fill="#D28572"/>
<path d="M178.058 49.7717H189.907V59.7718C189.907 63.0414 187.253 65.6972 183.981 65.6972C180.712 65.6972 178.056 63.0437 178.056 59.7718V49.7717H178.058Z" fill="#FFBC96"/>
<path d="M178.056 50.7846C181.72 56.941 185.65 57.4451 189.918 50.8336L178.056 50.7846Z" fill="#D28572"/>
<path d="M175.764 31.2441H192.201V45.1089C192.201 49.6457 188.518 53.3284 183.981 53.3284C179.445 53.3284 175.762 49.6457 175.762 45.1089V31.2441H175.764Z" fill="#FFBC96"/>
<path d="M183.827 45.3166C182.866 44.4087 182.504 43.6923 182.724 43.1228C182.931 42.5767 183.601 42.404 183.995 42.348L183.974 40.5557L184.558 40.5487L184.586 42.8988L184.299 42.9058C184.014 42.9151 183.386 43.0295 183.27 43.3305C183.214 43.4752 183.2 43.914 184.231 44.8895L183.83 45.3142L183.827 45.3166Z" fill="#1B1B43"/>
<path d="M186.903 47.1043C187.265 46.5535 187.44 46.0751 187.44 46.0751C185.449 46.2408 181.232 46.2408 181.232 46.2408C181.232 46.2408 181.354 46.7332 181.704 47.2793C182.964 47.3306 185.029 47.354 186.903 47.1043Z" fill="white"/>
<path d="M181.704 47.2816C182.133 47.9537 182.91 48.7122 184.24 48.7542C185.526 48.7962 186.399 47.8791 186.903 47.1066C185.029 47.3586 182.964 47.333 181.704 47.2816Z" fill="#1B1B43"/>
<path d="M192.108 39.9676C192.115 40.2827 192.399 33.4051 181.678 31.9442C181.678 31.9442 175.624 35.4075 176.317 40.404L173.029 39.7832C171.76 36.32 172.196 27.0573 179.636 27.7154C179.636 27.7154 181.239 25.4237 183.865 25.3817C197.211 25.1623 195.104 39.9629 194.782 40.3877L192.105 39.9676H192.108Z" fill="#1B1B43"/>
<path d="M196.337 43.1449C196.965 41.2403 196.194 39.2741 194.615 38.7535C193.036 38.2328 191.246 39.3547 190.618 41.2593C189.99 43.164 190.761 45.1301 192.34 45.6508C193.919 46.1715 195.709 45.0495 196.337 43.1449Z" fill="#FFBC96"/>
<path d="M193.06 43.2442L192.481 43.1719C192.581 42.3668 193.16 40.8241 194.626 40.7378L194.661 41.3212C193.307 41.4006 193.064 43.2279 193.062 43.2466L193.06 43.2442Z" fill="#1B1B43"/>
<path d="M171.568 43.1509C172.196 45.0552 173.986 46.1777 175.566 45.6573C177.146 45.1369 177.916 43.1695 177.288 41.2652C176.66 39.3608 174.87 38.2383 173.29 38.7587C171.711 39.2792 170.94 41.2465 171.568 43.1509Z" fill="#FFBC96"/>
<path d="M174.852 43.2442C174.842 43.1695 174.6 41.3982 173.253 41.3189L173.288 40.7354C174.754 40.8218 175.332 42.3667 175.433 43.1695L174.854 43.2419L174.852 43.2442Z" fill="#1B1B43"/>
<path d="M188.222 38.8428C188.222 39.3679 187.825 39.7949 187.337 39.7949C186.85 39.7949 186.453 39.3679 186.453 38.8428C186.453 38.3177 186.85 37.8906 187.337 37.8906C187.825 37.8906 188.222 38.3177 188.222 38.8428Z" fill="#1B1B43"/>
<path d="M189.053 35.6818L186.319 35.3529C186.061 35.3218 185.826 35.5061 185.795 35.7646L185.779 35.8967C185.748 36.1552 185.932 36.3899 186.191 36.421L188.925 36.75C189.183 36.7811 189.418 36.5967 189.449 36.3382L189.465 36.2062C189.496 35.9477 189.312 35.7129 189.053 35.6818Z" fill="#1B1B43"/>
<path d="M179.69 38.8428C179.69 39.3679 180.086 39.7949 180.574 39.7949C181.062 39.7949 181.459 39.3679 181.459 38.8428C181.459 38.3177 181.062 37.8906 180.574 37.8906C180.086 37.8906 179.69 38.3177 179.69 38.8428Z" fill="#1B1B43"/>
<path d="M178.99 36.7505L181.724 36.4216C181.983 36.3905 182.167 36.1557 182.136 35.8972L182.12 35.7652C182.089 35.5067 181.854 35.3223 181.596 35.3534L178.862 35.6823C178.603 35.7134 178.419 35.9482 178.45 36.2067L178.466 36.3388C178.497 36.5973 178.732 36.7816 178.99 36.7505Z" fill="#1B1B43"/>
<path opacity="0.4" d="M188.99 44.5138C190.044 44.5138 190.899 43.6591 190.899 42.6047C190.899 41.5504 190.044 40.6957 188.99 40.6957C187.935 40.6957 187.081 41.5504 187.081 42.6047C187.081 43.6591 187.935 44.5138 188.99 44.5138Z" fill="#FE5B52"/>
<path opacity="0.4" d="M178.922 44.5138C179.976 44.5138 180.831 43.6591 180.831 42.6047C180.831 41.5504 179.976 40.6957 178.922 40.6957C177.867 40.6957 177.013 41.5504 177.013 42.6047C177.013 43.6591 177.867 44.5138 178.922 44.5138Z" fill="#FE5B52"/>
<path d="M130.083 74.2341H73.1119C71.4891 74.2341 70.1737 75.5496 70.1737 77.1723V100.599C70.1737 102.221 71.4891 103.537 73.1119 103.537H130.083C131.706 103.537 133.022 102.221 133.022 100.599V77.1723C133.022 75.5496 131.706 74.2341 130.083 74.2341Z" fill="white"/>
<path d="M130.083 103.819H73.1118C71.3382 103.819 69.8936 102.375 69.8936 100.601V77.1747C69.8936 75.401 71.3382 73.9564 73.1118 73.9564H130.083C131.857 73.9564 133.302 75.401 133.302 77.1747V100.601C133.302 102.375 131.857 103.819 130.083 103.819ZM73.1118 74.5165C71.6462 74.5165 70.4537 75.7091 70.4537 77.1747V100.601C70.4537 102.066 71.6462 103.259 73.1118 103.259H130.083C131.549 103.259 132.742 102.066 132.742 100.601V77.1747C132.742 75.7091 131.549 74.5165 130.083 74.5165H73.1118Z" fill="#5375E2"/>
<path d="M126.027 81.4477H77.1655V82.0312H126.027V81.4477Z" fill="#E0E0FF"/>
<path d="M126.027 88.5937H77.1655V89.1771H126.027V88.5937Z" fill="#E0E0FF"/>
<path d="M126.027 95.742H77.1655V96.3254H126.027V95.742Z" fill="#E0E0FF"/>
<path d="M77.9824 96.3768L77.525 96.015L81.0093 91.6229L87.0047 93.6696L92.1646 88.0663L97.4132 92.295L103.574 85.3988L109.164 91.8469L114.156 78.925L119.334 87.0627L125.355 78.3812L125.836 78.7126L119.313 88.1176L114.284 80.2132L109.357 92.9625L103.567 86.2809L97.4786 93.0955L92.2229 88.8644L87.175 94.3464L81.21 92.309L77.9824 96.3768Z" fill="#5375E2"/>
<path d="M235.501 24.0188L232.689 1.27173C221.356 2.66031 212.577 12.3104 212.577 24.0188C212.577 36.6794 222.841 46.9433 235.501 46.9433C248.162 46.9433 258.426 36.6794 258.426 24.0188C258.426 23.349 258.391 22.6862 258.335 22.0305L235.501 24.0188Z" fill="white"/>
<path d="M235.501 47.235C222.701 47.235 212.285 36.8194 212.285 24.0188C212.285 12.308 221.041 2.40359 232.654 0.982333L232.944 0.947327L235.758 23.7037L258.603 21.7154L258.629 22.0071C258.692 22.7306 258.722 23.3887 258.722 24.0188C258.722 36.8194 248.307 47.235 235.506 47.235H235.501ZM232.437 1.59844C221.261 3.11305 212.871 12.7001 212.871 24.0188C212.871 36.4997 223.025 46.6515 235.504 46.6515C247.982 46.6515 258.136 36.4974 258.136 24.0188C258.136 23.489 258.115 22.9406 258.069 22.3478L235.247 24.3339L232.437 1.59844Z" fill="#5375E2"/>
<path d="M247.462 19.3513L270.295 17.3629C269.926 13.0851 268.386 9.14342 265.992 5.85983L247.462 19.3513Z" fill="#9192FF"/>
<path d="M254.034 10.5297C249.866 4.812 243.119 1.09433 235.504 1.09433C234.551 1.09433 233.613 1.15967 232.691 1.27169L235.504 24.0188L254.034 10.5274V10.5297Z" fill="#E0E0FF"/>
<path d="M235.273 24.5462L232.365 1.01732L232.654 0.982311C233.644 0.860956 234.575 0.802612 235.501 0.802612C242.89 0.802612 249.905 4.37325 254.267 10.357L254.44 10.5927L235.273 24.5462ZM233.014 1.52841L235.73 23.4914L253.623 10.4643C249.359 4.77233 242.608 1.38372 235.501 1.38372C234.689 1.38372 233.872 1.43039 233.014 1.52608V1.52841Z" fill="#5375E2"/>
<path d="M293.033 89.4479H251.154C249.155 89.4479 247.534 91.0685 247.534 93.0675V139.012C247.534 141.011 249.155 142.632 251.154 142.632H293.033C295.032 142.632 296.653 141.011 296.653 139.012V93.0675C296.653 91.0685 295.032 89.4479 293.033 89.4479Z" fill="white"/>
<path d="M293.033 142.912H251.156C249.007 142.912 247.256 141.161 247.256 139.012V93.0675C247.256 90.9181 249.007 89.1678 251.156 89.1678H293.033C295.182 89.1678 296.933 90.9181 296.933 93.0675V139.012C296.933 141.161 295.182 142.912 293.033 142.912ZM251.156 89.7279C249.315 89.7279 247.817 91.2262 247.817 93.0675V139.012C247.817 140.853 249.315 142.352 251.156 142.352H293.033C294.874 142.352 296.373 140.853 296.373 139.012V93.0675C296.373 91.2262 294.874 89.7279 293.033 89.7279H251.156Z" fill="#5375E2"/>
<path d="M291.056 97.0629H253.133V97.6767H291.056V97.0629Z" fill="#E0E0FF"/>
<path d="M291.056 106.398H253.133V107.012H291.056V106.398Z" fill="#E0E0FF"/>
<path d="M291.056 115.733H253.133V116.347H291.056V115.733Z" fill="#E0E0FF"/>
<path d="M291.056 125.068H253.133V125.682H291.056V125.068Z" fill="#E0E0FF"/>
<path d="M291.056 134.403H253.133V135.017H291.056V134.403Z" fill="#E0E0FF"/>
<path d="M256.363 109.609H253.133V135.017H256.363V109.609Z" fill="#CBCBFF"/>
<path d="M263.385 119.052H260.155V135.019H263.385V119.052Z" fill="#E0E0FF"/>
<path d="M270.407 113.184H267.177V135.017H270.407V113.184Z" fill="#CBCBFF"/>
<path d="M277.43 109.243H274.2V135.017H277.43V109.243Z" fill="#E0E0FF"/>
<path d="M284.452 104.484H281.222V135.017H284.452V104.484Z" fill="#CBCBFF"/>
<path d="M291.474 99.4176H288.244V135.017H291.474V99.4176Z" fill="#E0E0FF"/>
<path d="M153.556 4.45029H124.951C123.073 4.45029 121.551 5.97189 121.551 7.85056V19.4306C121.551 21.3093 123.073 22.8309 124.951 22.8309H144.485L151.995 29.2487V22.8309H153.554C155.433 22.8309 156.954 21.3093 156.954 19.4306V7.85056C156.954 5.97189 155.433 4.45029 153.554 4.45029H153.556Z" fill="white"/>
<path d="M152.303 29.9115L144.373 23.1343H124.951C122.907 23.1343 121.245 21.4727 121.245 19.4283V7.85056C121.245 5.80619 122.907 4.14456 124.951 4.14456H153.556C155.601 4.14456 157.262 5.80619 157.262 7.85056V19.4306C157.262 21.475 155.601 23.1366 153.556 23.1366H152.303V29.9139V29.9115ZM124.951 4.756C123.245 4.756 121.859 6.14459 121.859 7.84823V19.4283C121.859 21.1343 123.248 22.5205 124.951 22.5205H144.599L151.689 28.5789V22.5205H153.556C155.262 22.5205 156.648 21.1319 156.648 19.4283V7.85056C156.648 6.14459 155.26 4.75834 153.556 4.75834H124.951V4.756Z" fill="#5375E2"/>
<path d="M148.786 9.11777H125.887V9.70121H148.786V9.11777Z" fill="#9192FF"/>
<path d="M151.85 13.0572H125.887V13.6406H151.85V13.0572Z" fill="#9192FF"/>
<path d="M144.119 16.9942H125.887V17.5776H144.119V16.9942Z" fill="#9192FF"/>
<path d="M145.927 202.7H137.759V301.885H145.927V202.7Z" fill="#B0B0D2"/>
<path d="M229.067 202.7H220.899V301.885H229.067V202.7Z" fill="#B0B0D2"/>
<path opacity="0.3" d="M145.927 202.429H137.759V219.912H145.927V202.429Z" fill="#1B1B43"/>
<path opacity="0.3" d="M229.067 202.429H220.899V219.912H229.067V202.429Z" fill="#1B1B43"/>
<path d="M275.138 199.319H91.6908V207.538H275.138V199.319Z" fill="#B0B0D2"/>
<path d="M253.562 196.511H232.318V199.328H253.562V196.511Z" fill="#1B1B43"/>
<path d="M235.462 199.328H232.318L219.797 166.294C219.433 165.332 220.143 164.303 221.172 164.303C221.783 164.303 222.33 164.681 222.547 165.25L235.462 199.326V199.328Z" fill="#1B1B43"/>
<path d="M118.104 199.328H139.348V196.511H118.104V199.328Z" fill="#1B1B43"/>
<path d="M136.207 199.328H139.351L151.871 166.294C152.235 165.332 151.526 164.303 150.497 164.303C149.885 164.303 149.339 164.681 149.122 165.25L136.207 199.326V199.328Z" fill="#1B1B43"/>
<path d="M76.3417 161.292L87.9312 163.157L88.0595 156.807L88.1809 150.485L88.2882 145.08L85.0746 143.563L79.567 150.016L76.3417 161.292Z" fill="#D28572"/>
<path d="M83.3243 150.419C83.3243 150.419 84.7223 153.355 88.0595 156.807L88.1809 150.485L83.3243 150.419Z" fill="#925D4F"/>
<path d="M96.209 142.604C96.3443 142.678 99.8776 148.093 98.2907 148.583C96.7014 149.073 94.6967 148.884 94.6967 148.884L96.209 142.604Z" fill="#925D4F"/>
<path d="M97.3735 137.997L95.9103 151.451C95.7866 152.592 95.0374 153.57 93.9662 153.985C93.2194 154.277 92.3863 154.263 91.6488 153.95L83.322 150.417L82.1995 142.832L88.9417 135.771L97.3735 137.997Z" fill="#D28572"/>
<path d="M77.3406 153.908L73.3545 162.756L88.8157 165.187L89.8845 158.284L77.3406 153.908Z" fill="#FED3D1"/>
<path d="M87.4971 142.816C87.4971 142.816 94.3326 141.663 97.3735 137.999C97.3735 137.999 98.5007 130.914 88.0782 129.976C76.7711 128.958 66.1666 144.959 66.1666 144.959L79.98 157.024L87.4947 142.818L87.4971 142.816Z" fill="#1B1B43"/>
<path d="M84.9533 144.506C85.7304 146.018 87.301 146.76 88.4633 146.165C89.6231 145.568 89.9335 143.859 89.1564 142.347C88.3792 140.835 86.8086 140.093 85.6464 140.688C84.4865 141.285 84.1762 142.993 84.9533 144.506Z" fill="#D28572"/>
<path d="M87.5298 144.517C87.4831 144.195 87.2497 143.281 86.7503 142.94C86.5589 142.809 86.3442 142.772 86.0968 142.828L85.9685 142.258C86.3792 142.165 86.755 142.233 87.0817 142.459C87.8938 143.017 88.0992 144.375 88.1062 144.433L87.5298 144.517Z" fill="#1B1B43"/>
<path opacity="0.3" d="M92.4493 148.452C93.6982 148.452 94.7107 147.44 94.7107 146.191C94.7107 144.942 93.6982 143.929 92.4493 143.929C91.2004 143.929 90.1879 144.942 90.1879 146.191C90.1879 147.44 91.2004 148.452 92.4493 148.452Z" fill="#BE443D"/>
<path d="M93.8589 182.597C92.9534 185.953 90.5986 188.828 87.2543 190.212C87.056 190.294 86.8576 190.369 86.6546 190.446C86.4562 190.516 86.2648 190.59 86.0711 190.663C79.8353 193.113 74.9508 198.247 73.0021 204.677C72.8901 205.05 72.7967 205.405 72.7221 205.739C72.7221 205.739 59.7417 207.634 46.612 200.343C46.612 200.343 53.8467 174.676 69.8165 162.466C73.5085 159.642 78.3581 158.826 82.7922 160.233C84.7362 160.851 86.5495 161.769 88.1832 162.94C89.8098 164.119 91.2591 165.547 92.4586 167.194L92.7457 167.591L94.1576 177.895C94.3793 179.5 94.2626 181.099 93.8589 182.602V182.597Z" fill="#FE5B52"/>
<path d="M93.8589 182.597C92.9534 185.953 90.5986 188.828 87.2544 190.212C87.056 190.294 86.8576 190.369 86.6546 190.446C86.4562 190.516 86.2649 190.59 86.0712 190.663C84.0525 185.71 82.3955 177.834 82.3955 177.834L92.1226 179.125L93.8612 182.602L93.8589 182.597Z" fill="#BE443D"/>
<path d="M114.874 171.605C114.874 171.605 123.416 162.473 126.104 163.145C127.271 163.437 123.771 167.085 123.771 167.085C123.771 167.085 127.11 167.15 132.461 164.385C133.047 164.084 133.768 164.34 134.02 164.949C134.179 165.332 134.116 165.769 133.857 166.091C132.725 167.495 129.348 171.272 124.646 172.919L122.65 175.498L117.644 177.878L114.872 171.605H114.874Z" fill="#D28572"/>
<path d="M122.653 175.498L111.479 195.417C110.09 197.883 107.483 199.419 104.645 199.419C103.509 199.419 102.4 199.169 101.39 198.707C100.379 198.245 99.4692 197.568 98.7224 196.705L82.3908 177.832L92.741 167.587L104.076 183.129L114.87 171.605L122.646 175.496L122.653 175.498Z" fill="#FE5B52"/>
<path d="M107.264 188.901C100.711 178.67 92.0059 166.557 87.3384 162.564L87.7165 162.121C93.1051 166.728 102.849 180.924 107.756 188.586L107.264 188.901Z" fill="#1B1B43"/>
<path d="M104.94 199.97C103.747 199.97 102.501 199.636 101.255 198.964C97.6792 197.034 82.8015 178.791 82.1714 178.016L82.6242 177.647C82.7782 177.836 98.0596 196.574 101.532 198.45C105.483 200.583 108.165 198.644 109.411 197.298C111.397 195.153 122.289 175.554 122.398 175.356L122.909 175.638C122.459 176.448 111.873 195.496 109.84 197.694C108.445 199.202 106.753 199.97 104.942 199.97H104.94Z" fill="#1B1B43"/>
<path d="M86.5776 278.86L76.5167 298.701L78.7151 299.012L82.3628 293.833L93.7982 301.906L100.503 301.878C100.503 301.878 101.864 300.529 98.3817 296.907C94.2859 292.65 91.9452 287.07 92.0525 281.247L92.0619 280.746L89.3197 277.947L86.5799 278.86H86.5776Z" fill="#1B1B43"/>
<path d="M87 285.061L84.7806 301.871H87L89.8868 296.23L100.543 301.654H108.977C108.977 301.654 110.134 300.125 106.179 297.03C101.528 293.39 98.426 288.195 97.7165 282.412L97.6559 281.912L94.5473 279.527L87 285.058V285.061Z" fill="#393A8F"/>
<path d="M98.8297 287.126L114.445 232.213C115.705 227.786 113.593 223.095 109.446 221.1L95.3828 214.336L94.545 279.53L98.8297 287.126Z" fill="#1B1B43"/>
<path d="M46.612 200.341L43.4661 215.316C41.6295 224.061 48.3017 232.283 57.2399 232.283H86.6756C83.7304 246.673 85.644 266.468 86.6756 286.834L98.8298 287.126L107.215 234.778C108.618 226.021 103.677 217.482 95.3851 214.336L72.7221 205.736L46.612 200.341Z" fill="#5254CF"/>
<path opacity="0.4" d="M95.3268 287.163L94.748 287.089C94.811 286.596 101.14 237.634 99.4178 228.642C97.6395 219.354 79.7303 216.672 70.1106 215.23C69.2541 215.102 68.4676 214.985 67.7652 214.873C65.3544 214.49 63.6414 213.449 62.6682 211.781C60.7522 208.49 62.4092 203.977 62.4792 203.785L63.0253 203.991C63.009 204.035 61.3964 208.439 63.1723 211.489C64.0522 212.997 65.6274 213.942 67.8538 214.297C68.554 214.409 69.3404 214.525 70.1946 214.654C79.959 216.115 98.132 218.838 99.9896 228.532C100.72 232.35 100.158 243.38 98.3163 261.315C96.9464 274.657 95.3408 287.04 95.3244 287.163H95.3268Z" fill="white"/>
<path d="M53.2983 234.652L51.2866 246.285L41.6528 301.964H37.6038L47.2375 246.285L49.2492 234.652H53.2983Z" fill="#B0B0D2"/>
<path d="M80.1364 301.964H76.0873L66.4559 246.285L64.4419 234.652H68.4909L70.505 246.285L80.1364 301.964Z" fill="#B0B0D2"/>
<path opacity="0.3" d="M53.2982 234.652L51.2865 246.285H47.2375L49.2492 234.652H53.2982Z" fill="#1B1B43"/>
<path opacity="0.3" d="M70.505 246.285H66.4559L64.4419 234.652H68.4909L70.505 246.285Z" fill="#1B1B43"/>
<path d="M76.7548 237.825H38.864V232.283H76.7548C78.2857 232.283 79.525 233.524 79.525 235.055C79.525 236.586 78.2834 237.828 76.7548 237.828V237.825Z" fill="#CBCBFF"/>
<path d="M44.213 237.826H38.864L20.7984 193.545C20.2943 192.313 20.8451 190.901 22.0493 190.334C23.3492 189.722 24.8965 190.324 25.4379 191.657L44.2106 237.828L44.213 237.826Z" fill="#CBCBFF"/>
<path d="M290.321 142.221C290.183 142.291 286.435 147.514 287.992 148.072C289.549 148.627 291.549 148.527 291.549 148.527L290.319 142.221H290.321Z" fill="#D28572"/>
<path d="M309.248 161.656L296.767 163.134L296.998 156.807L297.231 150.508L297.432 145.124L300.951 143.717L306.457 150.321L309.248 161.656Z" fill="#FFBC96"/>
<path d="M302.422 150.602C302.422 150.602 300.758 153.479 296.998 156.807L297.234 150.508L302.424 150.602H302.422Z" fill="#D28572"/>
<path d="M289.364 137.596L290.232 151.029C290.307 152.167 291.007 153.171 292.053 153.633C292.783 153.955 293.609 153.978 294.356 153.698L302.786 150.55L304.233 143.061L297.84 135.752L289.364 137.598V137.596Z" fill="#FFBC96"/>
<path d="M299.119 143.054C299.119 143.054 297.049 139.035 294.893 138.422C294.893 138.422 286.594 141.126 284.767 134.762C284.767 134.762 289.444 134.807 293.451 132.001C297.458 129.196 301.64 130.543 304.534 133.161C304.534 133.161 313.99 133.628 306.534 150.314C306.534 150.314 304.66 150.935 299.887 144.27L299.117 143.056L299.119 143.054Z" fill="#1B1B43"/>
<path d="M301.444 144.429C300.606 145.899 299.019 146.571 297.901 145.934C296.783 145.297 296.557 143.589 297.397 142.118C298.237 140.648 299.822 139.976 300.94 140.613C302.058 141.25 302.284 142.958 301.444 144.429Z" fill="#FFBC96"/>
<path opacity="0.4" d="M294.246 147.831C295.515 147.831 296.543 146.786 296.543 145.498C296.543 144.209 295.515 143.164 294.246 143.164C292.978 143.164 291.95 144.209 291.95 145.498C291.95 146.786 292.978 147.831 294.246 147.831Z" fill="#FE5B52"/>
<path d="M298.734 144.3C298.62 143.544 298.83 141.992 300.438 141.533L300.599 142.093C299.075 142.527 299.301 144.144 299.313 144.212L298.737 144.298L298.734 144.3Z" fill="#1B1B43"/>
<path d="M296.767 163.134L296.907 156.63L307.897 153.81L311.106 161.881L296.767 163.134Z" fill="#CBCBFF"/>
<path d="M298.464 160.52C292.949 165.888 288.935 173.939 283.878 182.107C283.878 182.107 266.739 186.532 261.828 191.442L270.652 195.916L300.797 187.554L298.464 160.522V160.52Z" fill="#1B1B43"/>
<path d="M253.898 282.33L247.023 301.85L225.513 296.482C225.513 296.482 228.859 291.905 238.955 293.222L244.323 278.136L253.901 282.33H253.898Z" fill="#1B1B43"/>
<path d="M296.907 205.153L265.838 215.251C258.542 217.622 252.972 223.566 251.077 230.997L238.561 282.75L255.481 287.126C262.113 271.404 268.557 252.64 272.984 234.423L296.905 205.153H296.907Z" fill="#393A8F"/>
<path d="M285.628 283.81L288.155 301.896H264.624C264.624 301.896 266.764 296.645 276.876 295.479L276.293 284.587L285.628 283.81Z" fill="#1B1B43"/>
<path d="M325.073 199.998L328.219 214.973C330.056 223.718 323.493 232.427 314.557 232.427H286.26C287.85 246.967 289.383 266.125 288.351 286.491L272.855 286.783L264.47 234.434C263.068 225.678 268.008 217.139 276.3 213.993L296.907 205.153L325.073 199.998Z" fill="#5254CF"/>
<path d="M326.079 204.861C323.53 180.518 319.885 157.549 301.549 158.604C300.461 158.667 299.439 159.155 298.669 159.925C295.514 163.08 293.901 167.458 294.256 171.904L296.907 205.153C296.907 205.153 311.201 207.778 326.079 204.861Z" fill="#1B1B43"/>
<path d="M261.828 191.223C261.828 191.223 251.035 193.265 249.284 199.391H264.599L267.516 197.349L261.828 191.223Z" fill="#FFBC96"/>
<path d="M301.649 163.948L287.647 185.68L261.831 191.223L264.601 199.391L286.246 199.281C292.057 199.167 297.031 196.128 300.263 191.297L312.296 174.014L301.649 163.951V163.948Z" fill="#1B1B43"/>
<path d="M261.889 191.51L261.765 190.94L287.423 185.433C288.106 183.503 288.786 181.505 289.441 179.57C292.137 171.638 294.683 164.144 297.84 160.051L298.303 160.408C295.206 164.424 292.674 171.871 289.994 179.757C289.32 181.743 288.622 183.799 287.917 185.778L287.864 185.932L287.705 185.967L261.889 191.51Z" fill="#5254CF"/>
<path d="M277.301 199.797C271.296 199.797 265.063 199.692 264.594 199.683L264.603 199.099C264.813 199.104 285.675 199.456 288.237 198.887L288.316 198.87C294.506 197.494 299.642 193.16 302.06 187.279L304.951 180.245L305.49 180.467L302.599 187.5C300.109 193.557 294.818 198.019 288.442 199.44L288.365 199.456C287.168 199.722 282.314 199.797 277.301 199.797Z" fill="#5254CF"/>
<path d="M331.309 301.962H335.36L323.712 234.652H319.663L331.309 301.962Z" fill="#B0B0D2"/>
<path d="M296.874 301.962H292.825L304.471 234.652H308.522L296.874 301.962Z" fill="#B0B0D2"/>
<path opacity="0.3" d="M308.513 234.652L306.501 246.285H302.452L304.464 234.652H308.513Z" fill="#1B1B43"/>
<path opacity="0.3" d="M325.719 246.285H321.67L319.656 234.652H323.705L325.719 246.285Z" fill="#1B1B43"/>
<path d="M296.209 237.825H334.1V232.283H296.209C294.678 232.283 293.439 233.524 293.439 235.055C293.439 236.586 294.681 237.828 296.209 237.828V237.825Z" fill="#CBCBFF"/>
<path d="M328.751 237.825H334.1L352.166 193.545C352.67 192.313 352.119 190.901 350.915 190.334C349.615 189.722 348.067 190.324 347.526 191.657L328.753 237.828L328.751 237.825Z" fill="#CBCBFF"/>
<path d="M371.631 301.614H4.81606e-05V302.197H371.631V301.614Z" fill="#1B1B43"/>
</g>
<defs>
<clipPath id="clip0_229_1931">
<rect y="0.802612" width="371.631" height="301.395" fill="white"/>
</clipPath>
</defs>
</svg>
