<svg width="22" height="19" viewBox="0 0 22 19" fill="none" xmlns="http://www.w3.org/2000/svg">
<path fill-rule="evenodd" clip-rule="evenodd" d="M3.06482 4.72442H3.03552C1.57061 4.72442 0.62085 3.766 0.62085 2.55113C0.62085 1.31263 1.59868 0.374298 3.0929 0.374298C4.5859 0.374298 5.50391 1.31027 5.53321 2.54759C5.53321 3.76245 4.5859 4.72442 3.06482 4.72442ZM21.3836 18.8302H16.7948V12.3422C16.7948 10.644 16.077 9.4847 14.4985 9.4847C13.2912 9.4847 12.6198 10.267 12.3073 11.021C12.2041 11.2593 12.2059 11.58 12.2078 11.9106C12.2081 11.9555 12.2084 12.0006 12.2084 12.0456V18.8302H7.66224C7.66224 18.8302 7.72083 7.33742 7.66224 6.29272H12.2084V8.26038C12.4769 7.40005 13.9296 6.17218 16.2479 6.17218C19.124 6.17218 21.3836 7.97557 21.3836 11.8589V18.8302ZM5.19141 6.29271H1.14457V18.8302H5.19141V6.29271Z" fill="#0081FE" fill-opacity="0.7"/>
</svg>
