<svg width="23" height="22" viewBox="0 0 23 22" fill="none" xmlns="http://www.w3.org/2000/svg">
<path d="M22.1605 20.0684L14.9899 13.3924C16.1026 12.053 16.7045 10.4155 16.7045 8.69317C16.7045 6.63148 15.8403 4.69834 14.2775 3.24076C12.7148 1.78319 10.6329 0.98114 8.42126 0.98114C6.20962 0.98114 4.12775 1.78576 2.56497 3.24076C0.999432 4.69577 0.13797 6.63148 0.13797 8.69317C0.13797 10.7523 1.00219 12.6906 2.56497 14.1456C4.12775 15.6031 6.20686 16.4052 8.42126 16.4052C10.2712 16.4052 12.0272 15.8448 13.4658 14.8114L20.6363 21.4848C20.6574 21.5044 20.6823 21.52 20.7098 21.5306C20.7373 21.5412 20.7667 21.5466 20.7965 21.5466C20.8262 21.5466 20.8557 21.5412 20.8832 21.5306C20.9106 21.52 20.9356 21.5044 20.9566 21.4848L22.1605 20.3666C22.1815 20.347 22.1982 20.3238 22.2096 20.2982C22.221 20.2726 22.2268 20.2452 22.2268 20.2175C22.2268 20.1898 22.221 20.1624 22.2096 20.1368C22.1982 20.1112 22.1815 20.088 22.1605 20.0684ZM12.7948 12.7651C11.6241 13.8525 10.0724 14.4515 8.42126 14.4515C6.77012 14.4515 5.21839 13.8525 4.04768 12.7651C2.87974 11.6751 2.2364 10.2304 2.2364 8.69317C2.2364 7.1559 2.87974 5.70861 4.04768 4.62122C5.21839 3.53382 6.77012 2.93485 8.42126 2.93485C10.0724 2.93485 11.6269 3.53125 12.7948 4.62122C13.9628 5.71118 14.6061 7.1559 14.6061 8.69317C14.6061 10.2304 13.9628 11.6777 12.7948 12.7651Z" fill="white"/>
</svg>
